<?xml version="1.0" encoding="UTF-8"?> <svg xmlns="http://www.w3.org/2000/svg" width="70" height="70" viewBox="0 0 70 70" fill="none"> <path fill-rule="evenodd" clip-rule="evenodd" d="M35 66C52.1208 66 66 52.1208 66 35C66 17.8792 52.1208 4 35 4C17.8792 4 4 17.8792 4 35C4 52.1208 17.8792 66 35 66ZM35 70C54.33 70 70 54.33 70 35C70 15.67 54.33 0 35 0C15.67 0 0 15.67 0 35C0 54.33 15.67 70 35 70Z" fill="white"></path> <path fill-rule="evenodd" clip-rule="evenodd" d="M34 14C35.1046 14 36 14.8954 36 16V35.8158L50.4617 43.7464C51.4302 44.2775 51.7847 45.4932 51.2536 46.4617C50.7225 47.4302 49.5068 47.7847 48.5383 47.2536L33.0383 38.7536C32.398 38.4025 32 37.7303 32 37V16C32 14.8954 32.8954 14 34 14Z" fill="white"></path> </svg> 