<?xml version="1.0" encoding="UTF-8"?> <!-- Generator: Adobe Illustrator 23.0.6, SVG Export Plug-In . SVG Version: 6.00 Build 0) --> <svg xmlns="http://www.w3.org/2000/svg" xmlns:xlink="http://www.w3.org/1999/xlink" id="Layer_1" x="0px" y="0px" viewBox="0 0 512 512" style="enable-background:new 0 0 512 512;" xml:space="preserve"> <style type="text/css"> .st0{fill:#E4843C;} </style> <g> <path class="st0" d="M368.5,146.7c4.5,0,9,0.3,13.4,0.8c-5.3-20.2-23.7-35.1-45.6-35.1s-40.2,14.9-45.6,35.1 c4.4-0.5,8.9-0.8,13.4-0.8H368.5z"></path> <path class="st0" d="M239,211h194.7c-14.3-20.7-38.2-34.3-65.2-34.3h-64.3C277.2,176.7,253.3,190.3,239,211z"></path> <path class="st0" d="M206.7,159.6C206.7,88.1,264.9,30,336.3,30s129.6,58.1,129.6,129.6v54.6c10.8,2.8,20.9,7.3,30,13.2v-67.8 C495.9,71.6,424.3,0,336.3,0S176.7,71.6,176.7,159.6v67.8c9.1-5.9,19.2-10.5,30-13.2V159.6z"></path> <path class="st0" d="M440.8,241H231.9c-39.3,0-71.2,32-71.2,71.2v152.6c0,26.1,21.1,47.1,47.1,47.1h257.1 c25.6,0,47.1-20.7,47.1-47.1V312.2C512,273,480,241,440.8,241z"></path> <path class="st0" d="M32.1,224.9H15.5c-8.6,0-15.5,6.9-15.5,15.5v33.2c0,8.6,6.9,15.5,15.5,15.5c9.8,0,17.7,8,17.7,17.7v33.2 c0,63.9,40.6,118.5,97.4,139.4v-156C130.7,269,86.5,224.9,32.1,224.9z"></path> </g> </svg> 