<?xml version="1.0" encoding="UTF-8"?> <!-- Generator: Adobe Illustrator 23.0.6, SVG Export Plug-In . SVG Version: 6.00 Build 0) --> <svg xmlns="http://www.w3.org/2000/svg" xmlns:xlink="http://www.w3.org/1999/xlink" id="Layer_1" x="0px" y="0px" viewBox="0 0 143.7 306.3" style="enable-background:new 0 0 143.7 306.3;" xml:space="preserve"> <style type="text/css"> .st0{opacity:0.1;enable-background:new ;} .st1{fill:#FFBDA7;} .st2{fill:#263238;} .st3{fill:#37474F;} .st4{opacity:0.15;enable-background:new ;} .st5{fill:#2B97C1;} .st6{fill:#F28F8F;} </style> <g> <g id="freepik--Shadow--inject-32"> <ellipse id="freepik--shadow--inject-32" class="st0" cx="53.6" cy="276.8" rx="53.6" ry="29.5"></ellipse> </g> <g id="freepik--character-1--inject-142"> <g id="freepik--character--inject-142"> <path class="st1" d="M37.7,49.4c-5.6-1.2-13.6,1.8-17.1,10.5S9.1,90.9,8.9,96.9c-0.3,6,19.5,25.4,18.8,25.1 c-0.2-0.1,6.3-11.4,6.3-11.4L24.1,96L30,79.9L37.7,49.4z"></path> <path class="st2" d="M23,254.3c-0.7,0.3-0.9,2.8-0.9,5.6c0,2.1-0.5,5.9,2.1,6.7s6.2,0.3,7.8-1.8c2-2.6,3.3-4.8,6.2-8 c2.5-2.7,5.1-5.3,6.1-9c0.9-3.4,0-4.9-2.2-5.8c-3.2-1.3-7.8,1.2-10.7,3.9C29.7,247.4,23.7,254,23,254.3z"></path> <path class="st1" d="M31.8,247.7c1-1.5,4.1-3.7,5.8-3.2l0,0c2.4,0.7,2,3.8,0.1,5.8c-1.8,1.9-6.3,6.2-6.3,6.2l-2.1-5.4L31.8,247.7 z"></path> <path class="st2" d="M49.7,272.9c-1.1,0-1.6,3.6-1.8,6.4c-0.1,2.1-1,5.7-0.2,7.2c0.8,1.6,3.7,2.6,8.1,2.5 c3.7,0.4,7.3,1.6,10.6,3.5c3.1,1.5,6.7,1.9,10.1,1.3c4-0.5,8.1-2.9,8.7-4.6c0.6-1.7-0.2-2.4-9.7-6.4c0,0-10-4.3-14.6-9.3 L49.7,272.9z"></path> <path class="st1" d="M75.5,282.9l3.4,1.5c0.3,0.9,0,2.3-4.3,3c-6.4,1.1-22.9-10.5-22.9-10.5s0.5-1.8,1-3.3h8.1 C65.5,278.6,75.4,282.9,75.5,282.9z"></path> <path class="st1" d="M21.6,204.3c0.6-6.2,1.9-12.3,3.9-18.2c0,0-2.1-15.5-3.5-30.3c-2.4-26.6-0.9-35.4,4.3-47.4 c0,0,44.7-5.1,46.3,13.5c2,23.1,0.3,67.9-0.2,76.1c-0.5,8.2-4.3,13-7,30.1c-2.1,13-5.7,42.4-4.5,45.6c0.9,2.2-4.9,6.1-8.6,3.7 c-1.4-0.9-2.6-1.5-2.9-2.8c1.1-11.1-1.8-38-2.1-47.4c-0.4-11.5,5.1-24.1,5.1-24.1s-4.6-38.3-5.4-44.3c0,0-1.2,12-1.8,20.2 s-5,16.1-7.5,31.2c-2.1,12.1-5.7,38-6.3,46.2c-4.3,4.3-8.2,1.7-8.6-0.3C22.9,245.6,20.4,215.4,21.6,204.3z"></path> <path class="st3" d="M20,204.1c0.4-13.1,5.5-18,5.5-18s-2.1-15.5-3.5-30.3c-2.4-26.6-2.3-34.7,4.3-47.4c0,0,44.7-5.1,46.3,13.5 c2,23.1,0.3,67.9-0.2,76.1c-0.5,8.2-2.4,14.1-5.1,31.3c-1.3,8.1-3.7,20.2-5.3,31.9c-2.1,3.6-9.9,3.7-13.2,0.9 c-1-13.8-2.7-30.9-2-37.8c0.6-7.4,2.1-14.7,4.6-21.6c0,0-3.7-33.6-4.6-39.6c0,0-0.8,7.9-1.3,16.1c-0.5,8.2-3.5,16.4-6,31.6 c-1.5,8.9-5.1,24.8-6.4,36.1c-1.4,2.4-9.2,1.8-10.9-0.7C20.6,232.1,19.9,218.1,20,204.1z"></path> <path class="st4" d="M46.6,160.4c0-0.5,0-0.8,0-0.8l0,0l-3.4-19.2c-5.7-0.9-11-3.7-15-7.9c1.9,5.3,6.4,9.2,11.9,10.3l4,17.3 l0.4,21.4c0.2-1.4,0.4-2.7,0.6-4.1c0-0.6,0-1.2,0.1-1.8l0,0c0-0.5,0-1,0-1.5c0-0.5,0-1,0.1-1.5c0-1,0.1-2,0.2-2.9 c0.2-2.8,0.4-5.3,0.6-7.2c0-0.6,0-1.1,0.1-1.6C46.5,160.5,46.6,160.5,46.6,160.4z"></path> <polygon class="st1" points="58.2,44.8 56.3,62.1 41.1,61 42.6,41.7 "></polygon> <path class="st5" d="M24.2,111.2c2.1-5.2,4.6-10.2,7.6-15c-6.2-19.8-7.1-25.9-6.8-34.9c0.1-4.9,7-13,12.8-12 c1.5,0.3,2.6,0.3,4.1,0.6c0.2,4,7.9,5.1,15.4,2.6c2.3,0.4,4.5,1,6.7,1.6c2.7,1,10.4,15.4,11.2,24.4c0.5,4.1-0.4,8.3-2.5,11.8 c0.4,7.7,0.1,18.3,0,32.4c0,0-6.2,10-28.6,7.5c-19.8-2.1-22.4-10.7-22.4-10.7C22.3,116.8,23.2,113.9,24.2,111.2z"></path> <path class="st1" d="M125.1,90.4c-2.6,0.9-33.7,16.8-38,13.9c-4.3-2.9-25-29.7-25-29.7C58.6,68,59.4,60.1,64,54.2 c4.5,1.4,8.3,4.4,10.7,8.4c3.3,6.3,17.8,27.2,17.8,27.2c5.4-1.3,20.7-6.1,24.2-7.7c1-0.3,1.9-0.8,2.8-1.4 c1.8-1.5,1.9-5.5,2.1-7.6c0-1,0.1-2,0.1-3s0-4.3,2.1-3.1c0.4,0.2,0.7,0.6,1,1c0.3,0.5,0.5,1,0.6,1.6c0.3,1.3,0,2.7,0.3,4.1 c0,0.2,0.1,0.4,0.2,0.5c0.2,0.2,0.4,0.3,0.7,0.3c3.2,0.2,6.7-4,8.4-6.3c0.6-1.1,1.6-2,2.7-2.5c2-0.3,3.9,0.7,4.7,2.6 c1.2,2.2,1.5,4.8,0.9,7.2c-0.6,3.4-2.4,6.4-5,8.6C134.3,86.9,129.9,89.1,125.1,90.4z"></path> <path class="st2" d="M69.4,5.2C65,0.6,53.7-2.3,44.7,2.5l1.5,0.4c-1.7,0.3-3.4,0.7-5,1.1c-5.8,1.6-12,8-12.5,19 c-0.4,8.6,21.7,14.5,21.2,20.3l13.1-15.7C74.4,22.9,74,10,69.4,5.2z"></path> <path class="st6" d="M69.8,25.9c0,0,3.3,5.1,2.9,5.7c-0.8,0.5-1.7,0.9-2.6,1.1L69.8,25.9z"></path> <path class="st1" d="M59.7,9.6c3.3,1.8,8.9,5,10.2,17.1S68.3,43.4,66.6,45c-1.2,1.1-7,1.4-10.1,0.4c-3.8-1.3-12.1-5.5-15.9-11.9 c-4.5-7.6-5.3-17.6,0-21.5C46.1,8,53.3,7.1,59.7,9.6z"></path> <path class="st2" d="M61.1,23.9c9.9-11,2.1-18.6,2.1-18.6C55.6,1.6,46.7,1,38.6,3.5c-6.4,2-10.1,10.7-10.1,19.2l0,0v18.7 c0,0,8.8,12,30.9,5V36v-3.5l-0.6,0.2c-1.9,0.4-3.9-0.2-5.3-1.5c-3-2.7-3.3-7.7,0.6-9s5.8,3.2,5.8,3.2l0,0l1.4,4.1 c1.5-0.5,2.3-2.1,1.8-3.6c-0.3-0.9-1-1.6-2-1.9L61.1,23.9z"></path> </g> </g> </g> </svg> 