<?xml version="1.0" encoding="UTF-8"?> <!-- Generator: Adobe Illustrator 23.0.6, SVG Export Plug-In . SVG Version: 6.00 Build 0) --> <svg xmlns="http://www.w3.org/2000/svg" xmlns:xlink="http://www.w3.org/1999/xlink" id="Layer_1" x="0px" y="0px" viewBox="0 0 447.2 247.2" style="enable-background:new 0 0 447.2 247.2;" xml:space="preserve"> <style type="text/css"> .st0{fill:#FD974B;} .st1{opacity:0.5;fill:#FFFFFF;enable-background:new ;} .st2{fill:#FFFFFF;} .st3{opacity:0.3;enable-background:new ;} .st4{fill:#455A64;} .st5{opacity:0.1;enable-background:new ;} </style> <g> <g id="freepik--Plants--inject-32"> <g id="freepik--plants--inject-32"> <path class="st0" d="M394.6,70.1c0.6-2.3,4.8-1.7,6.7-1.8c1.5,0,2.9-0.4,4.3-1.1c1.8-1.1,2.6-3.3,2.1-5.4 c-0.3-1.2-1.1-2.3-0.8-3.5c0.4-1.5,2.2-2.1,3.8-2.4c2.5-0.5,4.5-0.7,5.8-3.2c1-1.9,0.8-4.2-0.5-5.9c-1.5-1.9-3-2.6-2.1-5.2 c0.7-2.2,2.5-3.9,3-6.2c0.7-3.1-1.3-6.2-4.4-6.9c-2-0.4-4,0.2-5.4,1.7c-0.7,0.7-1.2,1.6-2.1,1.9c-0.8,0.3-1.7,0.2-2.4-0.1 c-1.4-0.6-2.7-1.3-4-2.2c-1.3-0.8-2.8-1.2-4.4-1c-1.4,0.3-2.5,1.2-3.2,2.5c-0.7,1.2-1.1,2.5-1.2,3.9c-0.2,1.4-0.2,2.9-1.1,3.9 c-1.3,1.4-3.5,1.3-5.2,2.4c-0.8,0.5-1.4,1.2-1.8,2c-1.9,3.2-2.1,7.1-0.5,10.5L394.6,70.1z"></path> <path class="st1" d="M394.6,70.1c0.6-2.3,4.8-1.7,6.7-1.8c1.5,0,2.9-0.4,4.3-1.1c1.8-1.1,2.6-3.3,2.1-5.4 c-0.3-1.2-1.1-2.3-0.8-3.5c0.4-1.5,2.2-2.1,3.8-2.4c2.5-0.5,4.5-0.7,5.8-3.2c1-1.9,0.8-4.2-0.5-5.9c-1.5-1.9-3-2.6-2.1-5.2 c0.7-2.2,2.5-3.9,3-6.2c0.7-3.1-1.3-6.2-4.4-6.9c-2-0.4-4,0.2-5.4,1.7c-0.7,0.7-1.2,1.6-2.1,1.9c-0.8,0.3-1.7,0.2-2.4-0.1 c-1.4-0.6-2.7-1.3-4-2.2c-1.3-0.8-2.8-1.2-4.4-1c-1.4,0.3-2.5,1.2-3.2,2.5c-0.7,1.2-1.1,2.5-1.2,3.9c-0.2,1.4-0.2,2.9-1.1,3.9 c-1.3,1.4-3.5,1.3-5.2,2.4c-0.8,0.5-1.4,1.2-1.8,2c-1.9,3.2-2.1,7.1-0.5,10.5L394.6,70.1z"></path> <path class="st2" d="M387.3,62c0.2,0,0.5-0.1,0.5-0.3c5.6-15.7,22.6-27.4,22.7-27.5c0.2-0.2,0.3-0.5,0.1-0.7 c-0.2-0.2-0.4-0.3-0.7-0.1c-0.2,0.1-17.4,11.9-23.1,28C386.8,61.7,386.9,62,387.3,62C387.2,62,387.2,62,387.3,62L387.3,62z"></path> <path class="st2" d="M408.4,49.5c0.3,0,0.5-0.1,0.6-0.4c0-0.2,0-0.4-0.2-0.5c-0.3-0.2-6.3-3.9-11.6-3.5c-0.3,0-0.5,0.2-0.5,0.5 l0,0c0,0.3,0.2,0.5,0.5,0.5l0,0c5-0.3,11,3.3,11,3.4C408.3,49.5,408.3,49.5,408.4,49.5z"></path> <path class="st2" d="M393.7,50.3c0.3,0.1,0.5-0.1,0.6-0.4c2.3-8.6,0.7-14.4,0.6-14.6c-0.1-0.3-0.4-0.4-0.6-0.3s-0.4,0.3-0.3,0.6 c0,0.1,1.6,5.8-0.6,14.1C393.3,49.9,393.4,50.2,393.7,50.3L393.7,50.3L393.7,50.3z"></path> </g> <g> <path class="st0" d="M67.3,56.4c-2.2-0.7-4.2-2.1-5.5-4c-1.1-1.9-2.3-3.7-3.6-5.5c-1.3-1.4-2.8-2.5-4.1-4s-2.1-3.5-1.5-5.3 c0.5-1.2,1.3-2.3,2.2-3.2c0.9-0.9,1.4-2.2,1.3-3.5c-0.1-0.5-0.3-1-0.7-1.4c-1.1-1.5-3-2.4-4.7-3.2s-3.5-1.9-4.3-3.6 c-2.1-4.1,3.3-5.6,5.5-7.8c1.4-1.4,1.2-3.1,0.7-4.8c-0.7-1.8-0.8-3.8-0.3-5.7c1.3-5.2,8-5.5,11.5-2.2c1.3,1.2,2.4,3.5,4.2,4 c3.8,1.2,8.4-2.5,11.1,2.1c0.8,1.3,1.1,2.8,1,4.3c-0.2,1.3-0.8,2.4-0.8,3.7c-0.1,1.2,0.3,2.4,1.2,3.3c1.3,1.2,3.3,1.3,4.8,2.4 c1.9,1.5,1.9,4.5,1.2,6.9s-1.8,4.7-1.5,7.2s2.3,4.6,3,7c1.3,4.4-2.1,9.5-5.9,11.6C78,57,72,57.9,67.3,56.4z"></path> <path class="st3" d="M67.3,56.4c-2.2-0.7-4.2-2.1-5.5-4c-1.1-1.9-2.3-3.7-3.6-5.5c-1.3-1.4-2.8-2.5-4.1-4s-2.1-3.5-1.5-5.3 c0.5-1.2,1.3-2.3,2.2-3.2c0.9-0.9,1.4-2.2,1.3-3.5c-0.1-0.5-0.3-1-0.7-1.4c-1.1-1.5-3-2.4-4.7-3.2s-3.5-1.9-4.3-3.6 c-2.1-4.1,3.3-5.6,5.5-7.8c1.4-1.4,1.2-3.1,0.7-4.8c-0.7-1.8-0.8-3.8-0.3-5.7c1.3-5.2,8-5.5,11.5-2.2c1.3,1.2,2.4,3.5,4.2,4 c3.8,1.2,8.4-2.5,11.1,2.1c0.8,1.3,1.1,2.8,1,4.3c-0.2,1.3-0.8,2.4-0.8,3.7c-0.1,1.2,0.3,2.4,1.2,3.3c1.3,1.2,3.3,1.3,4.8,2.4 c1.9,1.5,1.9,4.5,1.2,6.9s-1.8,4.7-1.5,7.2s2.3,4.6,3,7c1.3,4.4-2.1,9.5-5.9,11.6C78,57,72,57.9,67.3,56.4z"></path> <path class="st2" d="M77.5,54.3c0.2-0.1,0.4-0.3,0.4-0.5C73.1,20.2,58,4,57.9,3.9c-0.2-0.2-0.5-0.2-0.7,0l0,0 c-0.2,0.2-0.2,0.5,0,0.7l0,0C57.4,4.8,72.2,20.7,77,54C76.9,54.2,77.2,54.4,77.5,54.3C77.5,54.4,77.5,54.4,77.5,54.3L77.5,54.3z"></path> <path class="st2" d="M72.2,32L72.2,32c0.3-0.1,0.4-0.5,0.3-0.7C66.7,21.6,53.5,21,53.3,21c-0.3,0-0.5,0.2-0.5,0.5l0,0 c0,0.3,0.2,0.5,0.5,0.5c0.1,0,12.8,0.6,18.3,9.8C71.8,31.9,72,32,72.2,32z"></path> <path class="st2" d="M69.3,24.2c0.2-0.1,0.4-0.3,0.4-0.5c-0.7-4.6,1-9.3,4.5-12.4c0.2-0.2,0.3-0.5,0.1-0.7 c-0.2-0.2-0.5-0.3-0.7-0.1c-3.8,3.3-5.7,8.3-4.9,13.3C68.7,24.1,68.9,24.3,69.3,24.2C69.2,24.2,69.2,24.2,69.3,24.2L69.3,24.2z"></path> <path class="st4" d="M48.2,73.5c-0.6-2.3-4.9-1.7-6.8-1.9c-1.5,0-3-0.4-4.4-1.1c-1.8-1.2-2.7-3.4-2.2-5.5 c0.3-1.2,1.1-2.3,0.8-3.5c-0.4-1.6-2.3-2.2-3.9-2.5c-2.6-0.5-4.6-0.7-5.9-3.3c-1-2-0.8-4.3,0.5-6.1c1.5-2,3.1-2.6,2.2-5.3 c-0.7-2.2-2.5-4-3-6.4c-0.6-3.3,1.5-6.4,4.8-7c1.9-0.4,3.9,0.2,5.3,1.6c0.7,0.7,1.2,1.6,2.1,2c0.8,0.3,1.7,0.2,2.5-0.1 c1.4-0.6,2.8-1.4,4.1-2.2c1.3-0.8,2.9-1.2,4.5-1c1.4,0.4,2.6,1.3,3.3,2.5c0.7,1.2,1.1,2.6,1.2,4c0.2,1.4,0.3,2.9,1.2,4 c1.3,1.5,3.6,1.4,5.3,2.4c0.8,0.5,1.4,1.2,1.9,2c2,3.3,2.2,7.3,0.5,10.8L48.2,73.5z"></path> <path class="st2" d="M55.8,65.2c-0.2,0-0.5-0.1-0.6-0.3c-5.7-16.1-23.1-28-23.3-28.1c-0.2-0.2-0.3-0.5-0.1-0.7s0.5-0.3,0.7-0.1 l0,0c0.2,0.1,17.8,12.2,23.7,28.6C56.2,64.8,56.1,65.1,55.8,65.2L55.8,65.2L55.8,65.2z"></path> <path class="st2" d="M34.1,52.4c-0.2,0-0.4,0-0.5-0.2s-0.1-0.5,0.2-0.7s6.4-4,11.9-3.6c0.3,0,0.5,0.2,0.5,0.5l0,0 c0,0.3-0.3,0.5-0.5,0.5l0,0c-5.1-0.4-11.2,3.4-11.3,3.4C34.2,52.4,34.2,52.4,34.1,52.4z"></path> <path class="st2" d="M49.1,53.1c-0.3,0.1-0.5-0.1-0.6-0.4c-2.4-8.8-0.7-14.8-0.6-15c0.1-0.3,0.4-0.4,0.6-0.3 c0.3,0.1,0.4,0.3,0.3,0.6l0,0c0,0-1.7,5.9,0.6,14.5C49.6,52.8,49.4,53.1,49.1,53.1L49.1,53.1z"></path> </g> </g> <g id="freepik--Floor--inject-32"> <g> <ellipse id="freepik--floor--inject-32" class="st0" cx="223.6" cy="132.9" rx="223.6" ry="114.3"></ellipse> <path class="st2" d="M203.3,107l-4.1,2.4l181.6,104.9l0.8-0.4c1.2-0.6,2.3-1.2,3.5-1.8L203.3,107z"></path> <path class="st2" d="M45.4,202L336.2,34.1c-1.8-0.5-3.6-1.1-5.4-1.6l-289,167C43,200.3,44.2,201.2,45.4,202z"></path> </g> </g> <g id="freepik--Shadow--inject-32"> <ellipse id="freepik--shadow--inject-32" class="st5" cx="177.9" cy="154" rx="53.6" ry="29.5"></ellipse> </g> </g> </svg> 