<?xml version="1.0" encoding="UTF-8"?> <svg xmlns="http://www.w3.org/2000/svg" width="75" height="62" viewBox="0 0 75 62" fill="none"> <path d="M66.1842 39.6713L29.9737 39.6713L37.9079 47.4755C39.5241 49.0653 40.3322 51.0886 40.3322 53.5455C40.3322 56.0023 39.5241 58.0256 37.9079 59.6154C36.2917 61.2051 34.2346 62 31.7368 62C29.239 62 27.182 61.2051 25.5658 59.6154L2.64474 37.0699C0.88158 35.3357 0 33.3124 0 31C0 28.6876 0.88158 26.6643 2.64474 24.9301L25.5658 2.38461C27.182 0.794868 29.239 0 31.7368 0C34.2346 0 36.2917 0.794868 37.9079 2.38461C39.5241 3.97436 40.3322 5.99766 40.3322 8.45454C40.3322 10.9114 39.5241 12.9347 37.9079 14.5245L29.9737 22.3287L66.1842 22.3287C68.6761 22.3345 70.7684 23.1669 72.4611 24.826C74.1537 26.4851 75 28.5431 75 31C75.0059 33.4511 74.1625 35.5091 72.4699 37.174C70.7772 38.8389 68.682 39.6713 66.1842 39.6713Z" fill="white"></path> </svg> 