<?xml version="1.0" encoding="UTF-8"?> <!-- Generator: Adobe Illustrator 23.0.6, SVG Export Plug-In . SVG Version: 6.00 Build 0) --> <svg xmlns="http://www.w3.org/2000/svg" xmlns:xlink="http://www.w3.org/1999/xlink" id="Layer_1" x="0px" y="0px" viewBox="0 0 512 512" style="enable-background:new 0 0 512 512;" xml:space="preserve"> <style type="text/css"> .st0{fill:#E4843C;} </style> <g> <g> <g> <path class="st0" d="M254.2,106.7c29.5,0,53.3-23.9,53.3-53.3c0-29.5-23.9-53.3-53.3-53.3s-53.3,23.9-53.3,53.3 C200.8,82.8,224.7,106.7,254.2,106.7z"></path> <path class="st0" d="M405.3,128c29.5,0,53.3-23.9,53.3-53.3c0-29.4-23.9-53.3-53.3-53.3S352,45.2,352,74.7 C352,104.1,375.9,128,405.3,128z"></path> <path class="st0" d="M106.7,128c29.5,0,53.3-23.9,53.3-53.3c0-29.4-23.9-53.3-53.3-53.3c-29.4,0-53.3,23.9-53.3,53.3 C53.3,104.1,77.2,128,106.7,128z"></path> <path class="st0" d="M498.2,305.4l-13.7-109.3c-3.3-26.6-26.1-46.7-52.9-46.7H379c-5.9,0-11.9,1-17.8,3.1 c-5.2,1.9-8.2,7.4-6.7,12.8c1,3.9,2,8,2.5,12.1l14.1,123.9c1.9,16.4-3.3,32.7-14.1,44.8c-2.3,2.6-5.2,5.1-9,7.8 c-3,2.2-4.7,5.7-4.4,9.4l8.4,117.4c0.4,5.6,5,9.9,10.6,9.9H448c5.6,0,10.2-4.3,10.6-9.9l10-139.5c8.4-0.6,16.3-4.4,21.9-10.8 C496.6,323.6,499.4,314.5,498.2,305.4L498.2,305.4z"></path> <path class="st0" d="M163.2,356.1c-4.6-2.9-8.6-6.2-11.9-9.9c-10.8-12.1-15.9-28.4-14.1-44.8l14.1-123.9c0.5-4.5,1.5-8.8,2.7-13 c0.8-2.8,0.4-5.7-1-8.2c-1.4-2.5-3.8-4.3-6.5-5c-4.9-1.3-9.2-1.9-13.5-1.9H80.3c-26.8,0-49.6,20.1-52.9,46.7L13.7,305.4 c-1.1,9.1,1.7,18.3,7.8,25.2c5.6,6.4,13.5,10.2,21.9,10.8l10,139.5c0.4,5.6,5,9.9,10.6,9.9h85.3c5.6,0,10.2-4.3,10.6-9.9 l8.2-114.9C168.5,361.9,166.6,358.1,163.2,356.1L163.2,356.1z"></path> <path class="st0" d="M349.9,303.7l-14.1-123.9c-3.4-29.5-26.8-51.8-54.4-51.8H227c-27.6,0-51,22.3-54.4,51.8l-14.1,123.9 c-1.2,10.4,2,20.7,8.8,28.2c5.8,6.5,13.5,10.3,21.9,10.8l11.8,159.4c0.4,5.5,5.1,9.9,10.6,9.9h85.3c5.6,0,10.2-4.3,10.6-9.9 l11.8-159.4c8.4-0.5,16.1-4.3,21.9-10.8C347.9,324.4,351.1,314.1,349.9,303.7L349.9,303.7z"></path> </g> </g> </g> </svg> 