<?xml version="1.0" encoding="UTF-8"?> <svg xmlns="http://www.w3.org/2000/svg" width="45" height="45" viewBox="0 0 45 45" fill="none"> <path d="M45 22.5C45 34.9264 34.9264 45 22.5 45C10.0736 45 0 34.9264 0 22.5C0 10.0736 10.0736 0 22.5 0C34.9264 0 45 10.0736 45 22.5Z" fill="#2C5E98"></path> <path d="M17.6667 11C13.9853 11 11 13.9853 11 17.6667V28.3333C11 32.0147 13.9853 35 17.6667 35H28.3333C32.0147 35 35 32.0147 35 28.3333V17.6667C35 13.9853 32.0147 11 28.3333 11H17.6667ZM31 13.6667C31.736 13.6667 32.3333 14.264 32.3333 15C32.3333 15.736 31.736 16.3333 31 16.3333C30.264 16.3333 29.6667 15.736 29.6667 15C29.6667 14.264 30.264 13.6667 31 13.6667ZM23 16.3333C26.6813 16.3333 29.6667 19.3187 29.6667 23C29.6667 26.6813 26.6813 29.6667 23 29.6667C19.3187 29.6667 16.3333 26.6813 16.3333 23C16.3333 19.3187 19.3187 16.3333 23 16.3333ZM23 19C21.9391 19 20.9217 19.4214 20.1716 20.1716C19.4214 20.9217 19 21.9391 19 23C19 24.0609 19.4214 25.0783 20.1716 25.8284C20.9217 26.5786 21.9391 27 23 27C24.0609 27 25.0783 26.5786 25.8284 25.8284C26.5786 25.0783 27 24.0609 27 23C27 21.9391 26.5786 20.9217 25.8284 20.1716C25.0783 19.4214 24.0609 19 23 19Z" fill="white"></path> </svg> 