<?xml version="1.0" encoding="UTF-8"?> <!-- Generator: Adobe Illustrator 23.0.6, SVG Export Plug-In . SVG Version: 6.00 Build 0) --> <svg xmlns="http://www.w3.org/2000/svg" xmlns:xlink="http://www.w3.org/1999/xlink" id="Layer_1" x="0px" y="0px" viewBox="0 0 447.2 247.2" style="enable-background:new 0 0 447.2 247.2;" xml:space="preserve"> <style type="text/css"> .st0{fill:#FD974B;} .st1{opacity:0.5;fill:#FFFFFF;enable-background:new ;} .st2{fill:#FFFFFF;} .st3{opacity:0.3;enable-background:new ;} .st4{fill:#455A64;} </style> <g id="freepik--Plants--inject-32"> <g id="freepik--plants--inject-32"> <path class="st0" d="M61.1,54c1.6-3.4,1.4-7.3-0.5-10.5c-0.4-0.8-1-1.5-1.8-2c-1.7-1.1-3.9-1-5.2-2.4c-0.9-1-0.9-2.5-1.1-3.9 c-0.1-1.4-0.5-2.7-1.2-3.9c-0.7-1.3-1.8-2.2-3.2-2.5c-1.6-0.2-3.1,0.2-4.4,1c-1.3,0.9-2.6,1.6-4,2.2c-0.7,0.3-1.6,0.4-2.4,0.1 c-0.9-0.3-1.4-1.2-2.1-1.9c-1.4-1.5-3.4-2.1-5.4-1.7c-3.1,0.7-5.1,3.8-4.4,6.9c0.5,2.3,2.3,4,3,6.2c0.9,2.6-0.6,3.3-2.1,5.2 c-1.3,1.7-1.5,4-0.5,5.9c1.3,2.5,3.3,2.7,5.8,3.2c1.6,0.3,3.4,0.9,3.8,2.4c0.3,1.2-0.5,2.3-0.8,3.5c-0.5,2.1,0.3,4.3,2.1,5.4 c1.4,0.7,2.8,1.1,4.3,1.1c1.9,0.1,6.1-0.5,6.7,1.8L61.1,54z"></path> <path class="st1" d="M61.1,54c1.6-3.4,1.4-7.3-0.5-10.5c-0.4-0.8-1-1.5-1.8-2c-1.7-1.1-3.9-1-5.2-2.4c-0.9-1-0.9-2.5-1.1-3.9 c-0.1-1.4-0.5-2.7-1.2-3.9c-0.7-1.3-1.8-2.2-3.2-2.5c-1.6-0.2-3.1,0.2-4.4,1c-1.3,0.9-2.6,1.6-4,2.2c-0.7,0.3-1.6,0.4-2.4,0.1 c-0.9-0.3-1.4-1.2-2.1-1.9c-1.4-1.5-3.4-2.1-5.4-1.7c-3.1,0.7-5.1,3.8-4.4,6.9c0.5,2.3,2.3,4,3,6.2c0.9,2.6-0.6,3.3-2.1,5.2 c-1.3,1.7-1.5,4-0.5,5.9c1.3,2.5,3.3,2.7,5.8,3.2c1.6,0.3,3.4,0.9,3.8,2.4c0.3,1.2-0.5,2.3-0.8,3.5c-0.5,2.1,0.3,4.3,2.1,5.4 c1.4,0.7,2.8,1.1,4.3,1.1c1.9,0.1,6.1-0.5,6.7,1.8L61.1,54z"></path> <path class="st2" d="M55,62C55.1,62,55.1,62,55,62c0.4,0,0.5-0.3,0.5-0.6c-5.7-16.1-22.9-27.9-23.1-28c-0.3-0.2-0.5-0.1-0.7,0.1 c-0.2,0.2-0.1,0.5,0.1,0.7c0.1,0.1,17.1,11.8,22.7,27.5C54.5,61.9,54.8,62,55,62L55,62z"></path> <path class="st2" d="M34.1,49.5c0-0.1,6-3.7,11-3.4l0,0c0.3,0,0.5-0.2,0.5-0.5l0,0c0-0.3-0.2-0.5-0.5-0.5 c-5.3-0.4-11.3,3.3-11.6,3.5c-0.2,0.1-0.2,0.3-0.2,0.5c0.1,0.3,0.3,0.4,0.6,0.4C34,49.5,34,49.5,34.1,49.5z"></path> <path class="st2" d="M48.6,50.3L48.6,50.3c0.3-0.1,0.4-0.4,0.3-0.6c-2.2-8.3-0.6-14-0.6-14.1c0.1-0.3-0.1-0.5-0.3-0.6 s-0.5,0-0.6,0.3c-0.1,0.2-1.7,6,0.6,14.6C48.1,50.2,48.3,50.4,48.6,50.3L48.6,50.3z"></path> </g> <g> <path class="st0" d="M360.2,54.7c-3.8-2.1-7.2-7.2-5.9-11.6c0.7-2.4,2.7-4.5,3-7c0.3-2.5-0.8-4.8-1.5-7.2s-0.7-5.4,1.2-6.9 c1.5-1.1,3.5-1.2,4.8-2.4c0.9-0.9,1.3-2.1,1.2-3.3c0-1.3-0.6-2.4-0.8-3.7c-0.1-1.5,0.2-3,1-4.3c2.7-4.6,7.3-0.9,11.1-2.1 c1.8-0.5,2.9-2.8,4.2-4c3.5-3.3,10.2-3,11.5,2.2c0.5,1.9,0.4,3.9-0.3,5.7c-0.5,1.7-0.7,3.4,0.7,4.8c2.2,2.2,7.6,3.7,5.5,7.8 c-0.8,1.7-2.6,2.8-4.3,3.6c-1.7,0.8-3.6,1.7-4.7,3.2c-0.4,0.4-0.6,0.9-0.7,1.4c-0.1,1.3,0.4,2.6,1.3,3.5c0.9,0.9,1.7,2,2.2,3.2 c0.6,1.8-0.2,3.8-1.5,5.3s-2.8,2.6-4.1,4c-1.3,1.8-2.5,3.6-3.6,5.5c-1.3,1.9-3.3,3.3-5.5,4C370.3,57.9,364.3,57,360.2,54.7z"></path> <path class="st3" d="M360.2,54.7c-3.8-2.1-7.2-7.2-5.9-11.6c0.7-2.4,2.7-4.5,3-7c0.3-2.5-0.8-4.8-1.5-7.2s-0.7-5.4,1.2-6.9 c1.5-1.1,3.5-1.2,4.8-2.4c0.9-0.9,1.3-2.1,1.2-3.3c0-1.3-0.6-2.4-0.8-3.7c-0.1-1.5,0.2-3,1-4.3c2.7-4.6,7.3-0.9,11.1-2.1 c1.8-0.5,2.9-2.8,4.2-4c3.5-3.3,10.2-3,11.5,2.2c0.5,1.9,0.4,3.9-0.3,5.7c-0.5,1.7-0.7,3.4,0.7,4.8c2.2,2.2,7.6,3.7,5.5,7.8 c-0.8,1.7-2.6,2.8-4.3,3.6c-1.7,0.8-3.6,1.7-4.7,3.2c-0.4,0.4-0.6,0.9-0.7,1.4c-0.1,1.3,0.4,2.6,1.3,3.5c0.9,0.9,1.7,2,2.2,3.2 c0.6,1.8-0.2,3.8-1.5,5.3s-2.8,2.6-4.1,4c-1.3,1.8-2.5,3.6-3.6,5.5c-1.3,1.9-3.3,3.3-5.5,4C370.3,57.9,364.3,57,360.2,54.7z"></path> <path class="st2" d="M364.8,54.3C364.8,54.4,364.8,54.4,364.8,54.3c0.3,0.1,0.6-0.1,0.5-0.3c4.8-33.3,19.6-49.2,19.8-49.4l0,0 c0.2-0.2,0.2-0.5,0-0.7l0,0c-0.2-0.2-0.5-0.2-0.7,0c-0.1,0.1-15.2,16.3-20,49.9C364.4,54,364.6,54.2,364.8,54.3L364.8,54.3z"></path> <path class="st2" d="M370.7,31.8c5.5-9.2,18.2-9.8,18.3-9.8c0.3,0,0.5-0.2,0.5-0.5l0,0c0-0.3-0.2-0.5-0.5-0.5 c-0.2,0-13.4,0.6-19.2,10.3c-0.1,0.2,0,0.6,0.2,0.7h0.1C370.3,32,370.5,31.9,370.7,31.8z"></path> <path class="st2" d="M373,24.2C373.1,24.2,373.1,24.2,373,24.2c0.4,0.1,0.6-0.1,0.6-0.4c0.8-5-1.1-10-4.9-13.3 c-0.2-0.2-0.5-0.1-0.7,0.1c-0.2,0.2-0.1,0.5,0.1,0.7c3.5,3.1,5.2,7.8,4.5,12.4C372.6,23.9,372.8,24.1,373,24.2L373,24.2z"></path> <path class="st4" d="M380.1,56.9c-1.7-3.5-1.5-7.5,0.5-10.8c0.5-0.8,1.1-1.5,1.9-2c1.7-1,4-0.9,5.3-2.4c0.9-1.1,1-2.6,1.2-4 c0.1-1.4,0.5-2.8,1.2-4c0.7-1.2,1.9-2.1,3.3-2.5c1.6-0.2,3.2,0.2,4.5,1c1.3,0.8,2.7,1.6,4.1,2.2c0.8,0.3,1.7,0.4,2.5,0.1 c0.9-0.4,1.4-1.3,2.1-2c1.4-1.4,3.4-2,5.3-1.6c3.3,0.6,5.4,3.7,4.8,7c-0.5,2.4-2.3,4.2-3,6.4c-0.9,2.7,0.7,3.3,2.2,5.3 c1.3,1.8,1.5,4.1,0.5,6.1c-1.3,2.6-3.3,2.8-5.9,3.3c-1.6,0.3-3.5,0.9-3.9,2.5c-0.3,1.2,0.5,2.3,0.8,3.5c0.5,2.1-0.4,4.3-2.2,5.5 c-1.4,0.7-2.9,1.1-4.4,1.1c-1.9,0.2-6.2-0.4-6.8,1.9L380.1,56.9z"></path> <path class="st2" d="M386.5,65.2L386.5,65.2c-0.3-0.1-0.4-0.4-0.4-0.6c5.9-16.4,23.5-28.5,23.7-28.6l0,0c0.2-0.2,0.5-0.1,0.7,0.1 c0.2,0.2,0.1,0.5-0.1,0.7c-0.2,0.1-17.6,12-23.3,28.1C387,65.1,386.7,65.2,386.5,65.2L386.5,65.2z"></path> <path class="st2" d="M407.9,52.3c-0.1,0-6.2-3.8-11.3-3.4l0,0c-0.2,0-0.5-0.2-0.5-0.5l0,0c0-0.3,0.2-0.5,0.5-0.5 c5.5-0.4,11.6,3.4,11.9,3.6c0.3,0.2,0.3,0.5,0.2,0.7s-0.3,0.2-0.5,0.2C408.1,52.4,408.1,52.4,407.9,52.3z"></path> <path class="st2" d="M393.2,53.1c-0.3,0-0.5-0.3-0.3-0.6c2.3-8.6,0.6-14.5,0.6-14.5l0,0c-0.1-0.3,0-0.5,0.3-0.6 c0.2-0.1,0.5,0,0.6,0.3c0.1,0.2,1.8,6.2-0.6,15C393.7,53,393.5,53.2,393.2,53.1L393.2,53.1z"></path> </g> </g> <g id="freepik--Floor--inject-32"> <g> <ellipse id="freepik--floor--inject-32" class="st0" cx="223.6" cy="132.9" rx="223.6" ry="114.3"></ellipse> <path class="st2" d="M203.3,107l-4.1,2.4l181.6,104.9l0.8-0.4c1.2-0.6,2.3-1.2,3.5-1.8L203.3,107z"></path> <path class="st2" d="M45.4,202L336.2,34.1c-1.8-0.5-3.6-1.1-5.4-1.6l-289,167C43,200.3,44.2,201.2,45.4,202z"></path> </g> </g> </svg> 