<?xml version="1.0" encoding="UTF-8"?> <!-- Generator: Adobe Illustrator 23.0.6, SVG Export Plug-In . SVG Version: 6.00 Build 0) --> <svg xmlns="http://www.w3.org/2000/svg" xmlns:xlink="http://www.w3.org/1999/xlink" id="Isolation_Mode" x="0px" y="0px" viewBox="0 0 530.6 349.7" style="enable-background:new 0 0 530.6 349.7;" xml:space="preserve"> <style type="text/css"> .st0{fill:#E4843C;} </style> <g> <g> <path class="st0" d="M246.6,139.7c3.6,5.5,9.2,9.2,15.7,10.4c6.7,1.2,13.8-0.3,19.1-4.1c10.5-7.5,12.1-20,8.4-28.1 c-3.7-7.8-10.9-11.7-31.1-16.7c-8.6-2.1-14.2-4.8-17.8-7.3c-6.7,5.3-11.6,12.7-13.9,21.2C233.5,120.5,238.8,127.9,246.6,139.7z"></path> <path class="st0" d="M265.7,85.3c-7.9,0-15.2,2.3-21.5,6.2c3.2,2,8.1,4.2,15.3,5.9c19.1,4.6,29,8.6,33.8,18.8 c4.4,9.5,2.5,24.3-9.7,33c-4.8,3.4-10.7,5.2-16.7,5.2c-1.8,0-3.7-0.2-5.5-0.5c-7.5-1.4-14-5.7-18.2-12.1 c-7.3-11-12.1-17.6-17.2-22.2c-0.3,1.9-0.4,3.8-0.4,5.8c0,22.1,17.9,40.1,40.1,40.1c22.1,0,40.1-17.9,40.1-40.1 C305.8,103.3,287.9,85.3,265.7,85.3z"></path> </g> </g> <g> <g> <path class="st0" d="M206.4,344.2l76.8-82.1c0,0,2.1-2,1.7-3.4c-0.4-1.2-5.4-5.7-6.6-6.8c-1.1-1.3-5.6-6.3-6.8-6.6 c-1.4-0.4-3.4,1.7-3.4,1.7L186,323.8c0,0-2.1-2.6-4.4,2c-2.1,4.2,7,12.6,8.7,14.1c1.5,1.7,9.9,10.7,14.1,8.7 C209,346.3,206.4,344.2,206.4,344.2z"></path> <g> <rect x="312.1" y="62" transform="matrix(0.7082 -0.7061 0.7061 0.7082 71.414 298.5521)" class="st0" width="169.6" height="1.9"></rect> <polygon class="st0" points="335.4,147.6 334.1,146.3 474.5,5.8 475.8,7.1 "></polygon> <polygon class="st0" points="341.3,163.5 340,162.2 490.1,12.1 491.4,13.4 "></polygon> <rect x="317.1" y="97.8" transform="matrix(0.7076 -0.7066 0.7066 0.7076 54.9313 330.3006)" class="st0" width="219.1" height="1.9"></rect> <rect x="316.4" y="52.7" transform="matrix(0.7073 -0.7069 0.7069 0.7073 74.0615 286.0714)" class="st0" width="132.1" height="1.9"></rect> <rect x="397.5" y="139.4" transform="matrix(0.7071 -0.7071 0.7071 0.7071 39.2937 375.5667)" class="st0" width="151" height="1.9"></rect> <polygon class="st0" points="397.7,195.1 396.4,193.7 525.7,64.4 527,65.7 "></polygon> <rect x="345" y="120.7" transform="matrix(0.7074 -0.7068 0.7068 0.7074 45.0981 352.2202)" class="st0" width="205.8" height="1.9"></rect> <polygon class="st0" points="363.2,185.9 361.8,184.6 513.3,33.1 514.6,34.4 "></polygon> <rect x="492.4" y="-9.1" transform="matrix(0.7071 -0.7071 0.7071 0.7071 115.9828 360.6113)" class="st0" width="1.9" height="98.9"></rect> <polygon class="st0" points="525.1,99.7 431.3,5.8 432.6,4.5 526.4,98.4 "></polygon> <polygon class="st0" points="518.6,119.4 413.9,14.7 415.2,13.4 519.9,118.1 "></polygon> <rect x="451.1" y="-0.5" transform="matrix(0.7071 -0.7071 0.7071 0.7071 77.3804 342.412)" class="st0" width="1.9" height="156.7"></rect> <rect x="439.1" y="10.7" transform="matrix(0.7071 -0.7071 0.7071 0.7071 63.7753 338.1222)" class="st0" width="1.9" height="162.7"></rect> <rect x="425.2" y="22.1" transform="matrix(0.7071 -0.7071 0.7071 0.7071 50.9557 331.9516)" class="st0" width="1.9" height="164.8"></rect> <polygon class="st0" points="417.6,199.7 336.6,118.6 337.9,117.3 419,198.3 "></polygon> <rect x="389.3" y="78.3" transform="matrix(0.7071 -0.7071 0.7071 0.7071 11.986 318.2922)" class="st0" width="1.9" height="132.8"></rect> <rect x="403" y="53.8" transform="matrix(0.7071 -0.7071 0.7071 0.7071 24.8801 324.3133)" class="st0" width="1.9" height="156.7"></rect> <polygon class="st0" points="471.8,175 357.7,61 359,59.7 473.1,173.7 "></polygon> </g> <path class="st0" d="M491.5,164.5c44.3-44.3,52.2-108.3,17.6-142.9C474.4-13,410.4-5.2,366.1,39.2C341,64.3,327.6,95.8,327,124.6 c-3,21-14.7,77.8-56.6,120.8l6.8,6.8l0.2-0.2c0.1,0.2,0.3,0.4,0.5,0.6c0.1,0.1,0.2,0.2,0.3,0.3L278,253l6.8,6.8 c40.9-39.9,94.3-52.4,117.5-56.1C432.1,204.2,465.2,190.8,491.5,164.5z M504.1,26.6c30.9,30.9,23.1,88.9-17.5,129.5 c-40.6,40.6-98.6,48.4-129.5,17.5C326.1,142.6,334,84.6,374.6,44C415.1,3.4,473.1-4.4,504.1,26.6z M361.8,204.9 c-3.8,0.5-31.9,12.7-42.7,19c-9.2,5.5-14.8,4.9-16.2,4.6c-0.1-0.2-0.3-0.4-0.5-0.6c-0.2-0.2-0.5-0.4-0.8-0.6 c-0.2-1.2-1-6.8,4.6-16.3c6.4-10.7,18.6-38.9,19-42.7c0.5-3.8,2.1-8.2,5-3c2.6,4.7,6.8,11.5,11,16c1.2,1.5,2.5,3,4,4.5 c1.9,1.9,3.9,3.6,5.8,5.1c4.3,3.5,9.8,6.8,13.7,9C370,202.8,365.5,204.4,361.8,204.9z"></path> <path class="st0" d="M511.8,24.5C541,60,532,120.1,489.7,162.4c-26.3,26.2-59.4,39.7-89.3,39.1c-23.1,3.7-76.6,16.2-117.5,56.1 l-4.8-4.8L278,253l6.8,6.8c40.9-39.9,94.3-52.4,117.5-56.1c29.9,0.6,63-12.9,89.3-39.1C534.6,121.4,543.2,59.7,511.8,24.5z"></path> <path class="st0" d="M345.2,185.8c1.9,1.9,3.9,3.6,5.8,5.1c4.3,3.5,9.8,6.8,13.7,9c0.2,0.1,0.4,0.2,0.5,0.3c0-0.7-0.6-1.5-2.3-2.5 c-4-2.2-9.4-5.5-13.7-9c-1.9-1.4-3.9-3.1-5.8-5.1c-1.5-1.5-2.8-3-4-4.5c-0.1-0.1-0.2-0.2-0.3-0.3c0.7,0.9,1.4,1.7,2.1,2.5 C342.4,182.8,343.8,184.3,345.2,185.8z"></path> <path class="st0" d="M374.6,44c40.6-40.6,98.6-48.4,129.5-17.5c0.8,0.8,1.6,1.6,2.3,2.5c-1.3-1.6-2.7-3.1-4.1-4.6 C471.3-6.5,413.3,1.3,372.8,41.9c-39.5,39.5-48,95.6-19.8,127C327,137.1,335.9,82.7,374.6,44z"></path> <path class="st0" d="M306.2,211.1c6.4-10.7,18.6-38.9,19-42.7c0.4-2.9,1.4-6.1,3.2-5.2c-2.9-5.1-4.5-0.6-5,3.1 c-0.5,3.8-12.7,31.9-19,42.7c-5.6,9.5-4.9,15.2-4.6,16.4c0.3,0.1,0.5,0.3,0.8,0.5c0.2,0.2,0.3,0.4,0.4,0.6c0.1,0,0.3,0,0.4,0.1 C301.3,224.3,301.5,219,306.2,211.1z"></path> <path class="st0" d="M276.4,250.7c-0.1-0.1-0.2-0.2-0.3-0.3c-0.2-0.2-0.3-0.4-0.4-0.6l-0.2,0.2l-4.8-4.8c-0.1,0.1-0.1,0.1-0.2,0.2 l6.8,6.8l0.2-0.2l-1.2-1.2L276.4,250.7z"></path> <path class="st0" d="M277.8,252.5l0.3,0.3l0,0C278.1,252.7,277.9,252.6,277.8,252.5z"></path> <path class="st0" d="M277.3,252l0.5,0.5C277.7,252.4,277.5,252.1,277.3,252L277.3,252z"></path> <path class="st0" d="M361.8,204.9c3.6-0.5,7.9-2,3.6-4.7c-0.1,1.4-2.9,2.2-5.4,2.5c-3.8,0.5-31.9,12.7-42.7,19 c-8.5,5-13.9,5-15.8,4.7c0,0.4,0.1,0.7,0.1,0.9c0.3,0.1,0.6,0.3,0.8,0.6c0.2,0.2,0.3,0.4,0.5,0.6c1.4,0.3,7,0.8,16.2-4.6 C329.8,217.5,358,205.3,361.8,204.9z"></path> <path class="st0" d="M295.5,245.4c10.3-13,7.5-16.8,7.5-16.8l-0.7-0.8l0,0l0,0l0,0l0,0l-0.8-0.7c0,0-3.8-2.8-16.8,7.5 c-13,10.3-15.4,11.2-15.4,11.2l7.6,7.5l0.1,0.1l7.5,7.5C284.4,260.9,285.3,258.5,295.5,245.4z"></path> <g> <g> <g> <path class="st0" d="M206.4,344.3l76.8-82.1c0,0,0.6-0.6,1.1-1.3l0.1,0.1c0,0,0.9-2.4,11.2-15.4c10.3-13,7.5-16.8,7.5-16.8 l-0.7-0.8l0,0l0,0l0,0l0,0l-0.8-0.7c0,0-0.4-0.3-1.3-0.3c0.1,2-0.8,6.6-7.8,15.5c-10.3,13-11.2,15.4-11.2,15.4l-0.1-0.1 c-0.5,0.7-1.1,1.3-1.1,1.3l-76.8,82.1c0,0,2.6,2.1-2,4.4c-2.8,1.3-7.3-2.1-10.6-5.1c2.2,2.4,9.8,10.2,13.7,8.2 C209,346.4,206.4,344.3,206.4,344.3z"></path> </g> <g> <path class="st0" d="M186.7,336.4c0.7,0.8,1.4,1.5,2,2c-0.7-0.7-1.3-1.3-1.5-1.6C187,336.7,186.9,336.6,186.7,336.4z"></path> </g> <g> <path class="st0" d="M188.7,338.4c0.6,0.6,1.3,1.3,2,2c-0.1-0.2-0.3-0.3-0.4-0.4C190,339.7,189.4,339.2,188.7,338.4z"></path> </g> </g> </g> <path class="st0" d="M269.7,245.4"></path> <g> <g> <path class="st0" d="M268.5,246.3c0,0,2.4-1.2,5.9,2.3c3.5,3.5,4.2,4.2,4.2,4.2l-4.1,4.1l-4.2-4.2c0,0-2.8-2.9-5.3-2.9 L268.5,246.3z"></path> <path class="st0" d="M283.9,261.6c0,0,1.2-2.4-2.3-5.9c-3.5-3.5-4.2-4.2-4.2-4.2l-4.1,4.1l4.2,4.2c0,0,2.9,2.8,2.9,5.3 L283.9,261.6z"></path> </g> </g> <g> <path class="st0" d="M269.1,245.6c0,0,2.4-1.2,5.9,2.3c3.5,3.5,4.2,4.2,4.2,4.2l-4.1,4.1l-4.2-4.2c0,0-2.8-2.9-5.3-2.9 L269.1,245.6z"></path> <path class="st0" d="M284.5,261c0,0,1.2-2.4-2.3-5.9c-3.5-3.5-4.2-4.2-4.2-4.2l-4.1,4.1l4.2,4.2c0,0,2.9,2.8,2.9,5.3L284.5,261z"></path> </g> <path class="st0" d="M280.4,265.2c0,0-2.5,2-8.1-1c-5.6-3.1-15.5-6.8-18.3-4.1c0,0,3.7-1.7,10.7,1.5c7,3.2,12.3,6.3,14.5,4.7 c0,0,1.3-1.3,1.3-1.2"></path> <path class="st0" d="M271.8,274.5c0,0-2.5,2-8.3-1.2c-5.8-3.2-15.9-7.3-18.7-4.5c0,0,3.8-1.7,11,1.7c7.2,3.4,12.7,6.6,14.9,5.1 c0,0,1.3-1.3,1.3-1.2"></path> <path class="st0" d="M262.7,284.2c0,0-2.6,2-8.5-1.4c-5.9-3.4-16.5-7.8-19.2-5c0,0,3.8-1.6,11.3,2c7.4,3.6,13.1,7.1,15.4,5.6 c0,0,1.3-1.3,1.3-1.2"></path> <path class="st0" d="M250.8,296.6c0,0-2.6,2-8.7-1.6c-6.1-3.6-16.9-8.3-19.7-5.5c0,0,3.8-1.6,11.5,2.3c7.7,3.8,13.5,7.5,15.8,6 c0,0,1.3-1.3,1.3-1.2"></path> <path class="st0" d="M238.8,309.4c0,0-2.6,2-8.9-1.8c-6.3-3.8-17.5-8.8-20.3-6c0,0,3.9-1.5,11.8,2.6c7.9,4.1,14,7.9,16.2,6.4 c0,0,1.3-1.3,1.3-1.2"></path> <path class="st0" d="M227.4,321.7c0,0-2.6,2-9.2-2.1c-6.6-4.1-18.1-9.4-20.8-6.6c0,0,3.9-1.5,12.1,2.9c8.2,4.3,14.5,8.4,16.7,7 c0,0,1.3-1.3,1.3-1.2"></path> <path class="st0" d="M217.7,332.3c0,0-2.6,2-9.4-2.3c-6.8-4.3-18.7-10-21.5-7.2c0,0,4-1.4,12.5,3.2c8.5,4.6,15,8.9,17.3,7.5 c0,0,1.3-1.3,1.3-1.2"></path> <path class="st0" d="M182.1,325c0,0,3.6,12.3,23,23.2c0,0-3,3.7-9.6-3l-13.3-13.3C182.1,331.9,179.6,328.1,182.1,325z"></path> </g> <g> <path class="st0" d="M344.2,324.2l-82.1-76.8c0,0-2-2.1-3.4-1.7c-1.2,0.4-5.7,5.4-6.8,6.6c-1.3,1.1-6.3,5.6-6.6,6.8 c-0.4,1.4,1.7,3.4,1.7,3.4l76.8,82.1c0,0-2.6,2.1,2,4.4c4.2,2.1,12.6-7,14.1-8.7c1.7-1.5,10.7-9.9,8.7-14.1 C346.3,321.6,344.2,324.2,344.2,324.2z"></path> <g> <rect x="57.2" y="64.4" transform="matrix(0.7068 -0.7074 0.7074 0.7068 -81.947 82.1024)" class="st0" width="1.9" height="151"></rect> <rect x="68.4" y="37.9" transform="matrix(0.7066 -0.7076 0.7076 0.7066 -71.1516 87.0105)" class="st0" width="1.9" height="182.9"></rect> <rect x="82.2" y="18.3" transform="matrix(0.7068 -0.7074 0.7074 0.7068 -61.3702 94.3395)" class="st0" width="1.9" height="205.8"></rect> <rect x="91.9" y="2" transform="matrix(0.7076 -0.7066 0.7066 0.7076 -49.914 97.5084)" class="st0" width="1.9" height="214.1"></rect> <rect x="133.3" y="-22.3" transform="matrix(0.7066 -0.7076 0.7076 0.7066 -4.8098 113.3111)" class="st0" width="1.9" height="169.6"></rect> <rect x="125.2" y="-23.1" transform="matrix(0.7082 -0.7061 0.7061 0.7082 -17.0195 111.3065)" class="st0" width="1.9" height="198.7"></rect> <polygon class="st0" points="191.1,161.8 189.8,163.1 39.7,13 41,11.7 "></polygon> <rect x="103.5" y="-11.2" transform="matrix(0.7076 -0.7066 0.7066 0.7076 -38.9399 102.5714)" class="st0" width="1.9" height="219.1"></rect> <rect x="147.6" y="-12.9" transform="matrix(0.7074 -0.7068 0.7068 0.7074 5.8952 120.5561)" class="st0" width="1.9" height="132.1"></rect> <rect x="-9.1" y="36.4" transform="matrix(0.7071 -0.7071 0.7071 0.7071 -14.602 39.4339)" class="st0" width="98.9" height="1.9"></rect> <polygon class="st0" points="99.7,5.5 5.8,99.4 4.5,98.1 98.4,4.2 "></polygon> <rect x="-7.6" y="62.8" transform="matrix(0.7071 -0.7071 0.7071 0.7071 -25.6417 65.6231)" class="st0" width="148.1" height="1.9"></rect> <rect x="-0.5" y="77.7" transform="matrix(0.7071 -0.7071 0.7071 0.7071 -32.8053 78.0405)" class="st0" width="156.7" height="1.9"></rect> <rect x="10.7" y="89.7" transform="matrix(0.7071 -0.7071 0.7071 0.7071 -37.095 91.6421)" class="st0" width="162.7" height="1.9"></rect> <polygon class="st0" points="163.4,46.9 46.9,163.4 45.6,162.1 162.1,45.5 "></polygon> <polygon class="st0" points="199.7,113 118.6,194.1 117.3,192.8 198.3,111.7 "></polygon> <polygon class="st0" points="192.3,94.1 98.4,188 97.1,186.7 191,92.8 "></polygon> <polygon class="st0" points="188.2,72 77.4,182.8 76.1,181.4 186.9,70.7 "></polygon> <rect x="36.7" y="114.3" transform="matrix(0.7071 -0.7071 0.7071 0.7071 -47.0976 116.7252)" class="st0" width="161.3" height="1.9"></rect> </g> <path class="st0" d="M164.5,39.1C120.2-5.2,56.2-13,21.6,21.6C-13,56.2-5.2,120.2,39.1,164.5c25.1,25.1,56.6,38.5,85.5,39.1 c21,3,77.8,14.7,120.8,56.6l6.8-6.8l-0.2-0.2c0.2-0.1,0.4-0.3,0.6-0.4c0.1-0.1,0.2-0.2,0.3-0.3l0.2,0.2l6.8-6.8 c-39.9-40.9-52.4-94.3-56.1-117.5C204.2,98.5,190.8,65.4,164.5,39.1z M26.6,26.6C57.5-4.4,115.5,3.4,156.1,44 c40.6,40.6,48.4,98.6,17.5,129.5c-30.9,30.9-88.9,23.1-129.5-17.5C3.5,115.5-4.4,57.5,26.6,26.6z M204.9,168.9 c0.5,3.8,12.7,31.9,19,42.7c5.5,9.2,4.9,14.8,4.6,16.2c-0.2,0.1-0.4,0.3-0.6,0.4c-0.2,0.2-0.4,0.5-0.6,0.8 c-1.2,0.3-6.8,1-16.3-4.6c-10.8-6.4-38.9-18.6-42.7-19c-3.8-0.5-8.2-2.1-3-5c4.7-2.6,11.5-6.8,16-11c1.5-1.2,3-2.5,4.5-4 c1.9-1.9,3.6-3.9,5.1-5.8c3.5-4.3,6.8-9.8,9-13.7C202.8,160.6,204.4,165.1,204.9,168.9z"></path> <path class="st0" d="M24.5,18.9C60-10.4,120.1-1.3,162.4,41c26.2,26.2,39.7,59.4,39.1,89.3c3.7,23.1,16.2,76.6,56.1,117.5 l-4.8,4.8l0.2,0.2l6.8-6.8c-39.9-40.9-52.4-94.3-56.1-117.5c0.6-29.9-12.9-63-39.1-89.3C121.4-4,59.7-12.6,24.5,18.9z"></path> <path class="st0" d="M185.8,185.4c1.9-1.9,3.6-3.9,5.1-5.8c3.5-4.3,6.8-9.8,9-13.7c0.1-0.2,0.2-0.4,0.3-0.5 c-0.7,0-1.5,0.6-2.5,2.3c-2.2,4-5.5,9.4-9,13.8c-1.4,1.9-3.1,3.9-5.1,5.8c-1.5,1.5-3,2.8-4.5,4c-0.1,0.1-0.2,0.2-0.3,0.3 c0.9-0.7,1.7-1.4,2.5-2.1C182.8,188.2,184.3,186.9,185.8,185.4z"></path> <path class="st0" d="M44,156.1C3.5,115.5-4.4,57.5,26.6,26.6c0.8-0.8,1.6-1.6,2.5-2.3c-1.6,1.3-3.1,2.7-4.6,4.1 C-6.5,59.3,1.3,117.3,41.9,157.9c39.5,39.5,95.6,48,127,19.8C137.1,203.6,82.7,194.7,44,156.1z"></path> <path class="st0" d="M211.1,224.4c-10.8-6.4-38.9-18.6-42.7-19c-2.9-0.4-6.1-1.4-5.2-3.2c-5.1,2.9-0.6,4.5,3.1,5 c3.7,0.5,31.9,12.7,42.7,19c9.5,5.6,15.2,4.9,16.3,4.6c0.1-0.3,0.3-0.5,0.6-0.8c0.2-0.2,0.4-0.3,0.6-0.5c0-0.1,0-0.3,0.1-0.4 C224.3,229.4,219,229.1,211.1,224.4z"></path> <path class="st0" d="M250.7,254.3c-0.1,0.1-0.2,0.2-0.3,0.3c-0.2,0.2-0.4,0.3-0.6,0.4l0.2,0.2l-4.8,4.8c0.1,0.1,0.1,0.1,0.2,0.2 l6.8-6.8l-0.2-0.2l-1.2,1.2L250.7,254.3z"></path> <path class="st0" d="M252.5,252.8l0.3-0.3l0,0C252.7,252.6,252.6,252.7,252.5,252.8z"></path> <path class="st0" d="M252,253.3l0.5-0.5C252.4,253,252.1,253.1,252,253.3L252,253.3z"></path> <path class="st0" d="M204.9,168.9c-0.5-3.6-2-7.9-4.7-3.6c1.4,0.1,2.2,2.9,2.5,5.4c0.5,3.8,12.7,31.9,19,42.7 c5,8.5,4.9,13.9,4.7,15.8c0.4,0,0.7-0.1,0.9-0.1c0.1-0.3,0.3-0.5,0.6-0.8c0.2-0.2,0.4-0.3,0.6-0.4c0.3-1.4,0.8-7-4.6-16.2 C217.5,200.8,205.3,172.6,204.9,168.9z"></path> <path class="st0" d="M245.4,235.1c-13.1-10.3-16.8-7.5-16.8-7.5l-0.8,0.7l0,0l0,0l0,0l0,0l-0.7,0.8c0,0-2.8,3.8,7.5,16.8 c10.3,13,11.2,15.4,11.2,15.4l7.5-7.6l0.1-0.1l7.5-7.6C260.9,246.3,258.5,245.4,245.4,235.1z"></path> <g> <g> <g> <path class="st0" d="M344.3,324.2l-82.1-76.8c0,0-0.6-0.6-1.3-1.1l0.1-0.1c0,0-2.4-0.9-15.4-11.2c-13-10.3-16.8-7.5-16.8-7.5 l-0.8,0.7l0,0l0,0l0,0l0,0l-0.7,0.8c0,0-0.3,0.4-0.3,1.3c2-0.1,6.6,0.8,15.5,7.8c13.1,10.3,15.4,11.2,15.4,11.2l-0.1,0.1 c0.7,0.5,1.3,1.1,1.3,1.1l82.1,76.8c0,0,2.1-2.6,4.4,2c1.4,2.8-2.1,7.3-5.1,10.6c2.4-2.2,10.2-9.8,8.2-13.7 C346.4,321.6,344.3,324.2,344.3,324.2z"></path> </g> <g> <path class="st0" d="M336.4,343.9c0.7-0.7,1.4-1.4,2-2c-0.7,0.7-1.3,1.2-1.6,1.5C336.7,343.6,336.6,343.8,336.4,343.9z"></path> </g> <g> <path class="st0" d="M338.4,342c0.6-0.6,1.3-1.3,2-2c-0.2,0.2-0.3,0.3-0.4,0.4C339.7,340.7,339.2,341.2,338.4,342z"></path> </g> </g> </g> <path class="st0" d="M245.4,261"></path> <g> <g> <path class="st0" d="M246.3,262.1c0,0-1.2-2.4,2.3-5.9c3.5-3.5,4.2-4.2,4.2-4.2l4.1,4.1l-4.2,4.2c0,0-2.9,2.8-2.9,5.3 L246.3,262.1z"></path> <path class="st0" d="M261.6,246.7c0,0-2.4-1.2-5.9,2.3c-3.5,3.5-4.2,4.2-4.2,4.2l4.1,4.1l4.2-4.2c0,0,2.8-2.9,5.3-2.9 L261.6,246.7z"></path> </g> </g> <g> <path class="st0" d="M245.6,261.5c0,0-1.2-2.4,2.3-5.9c3.5-3.5,4.2-4.2,4.2-4.2l4.1,4.1l-4.2,4.2c0,0-2.9,2.8-2.9,5.3 L245.6,261.5z"></path> <path class="st0" d="M261,246.1c0,0-2.4-1.2-5.9,2.3c-3.5,3.5-4.2,4.2-4.2,4.2l4.1,4.1l4.2-4.2c0,0,2.8-2.9,5.3-2.9L261,246.1z"></path> </g> <path class="st0" d="M265.2,250.2c0,0,2,2.5-1,8.1c-3.1,5.6-6.8,15.5-4,18.3c0,0-1.7-3.7,1.5-10.7c3.2-7,6.3-12.3,4.7-14.5 c0,0-1.3-1.3-1.2-1.3"></path> <path class="st0" d="M274.5,258.9c0,0,2,2.5-1.2,8.3c-3.2,5.8-7.3,15.9-4.5,18.7c0,0-1.7-3.8,1.7-11c3.4-7.2,6.7-12.7,5.1-14.9 c0,0-1.3-1.3-1.2-1.3"></path> <path class="st0" d="M284.2,268c0,0,2,2.5-1.4,8.5c-3.4,5.9-7.8,16.5-5,19.2c0,0-1.6-3.8,2-11.3c3.6-7.4,7.1-13.1,5.6-15.4 c0,0-1.3-1.3-1.2-1.3"></path> <path class="st0" d="M296.6,279.8c0,0,2,2.6-1.6,8.7c-3.6,6.1-8.3,16.9-5.5,19.7c0,0-1.6-3.8,2.3-11.5c3.8-7.7,7.5-13.5,6-15.8 c0,0-1.3-1.3-1.2-1.3"></path> <path class="st0" d="M309.4,291.8c0,0,2,2.6-1.8,8.9c-3.8,6.3-8.8,17.5-6,20.3c0,0-1.5-3.9,2.6-11.8c4.1-7.9,7.9-14,6.5-16.2 c0,0-1.3-1.3-1.2-1.3"></path> <path class="st0" d="M321.7,303.2c0,0,2,2.6-2.1,9.2c-4.1,6.6-9.4,18-6.6,20.8c0,0-1.5-3.9,2.9-12.1c4.3-8.2,8.4-14.5,7-16.7 c0,0-1.3-1.3-1.2-1.3"></path> <path class="st0" d="M332.3,312.9c0,0,2,2.6-2.3,9.4c-4.3,6.8-10,18.7-7.2,21.5c0,0-1.4-4,3.2-12.5c4.6-8.5,8.9-15,7.5-17.3 c0,0-1.3-1.3-1.2-1.3"></path> <path class="st0" d="M325,348.5c0,0,12.3-3.6,23.2-23c0,0,3.7,3-3,9.6l-13.4,13.3C331.9,348.5,328.1,351.1,325,348.5z"></path> </g> </g> </svg> 