<?xml version="1.0" encoding="UTF-8"?> <svg xmlns="http://www.w3.org/2000/svg" width="800" height="800" viewBox="0 0 800 800" fill="none"> <path d="M1.42735e-05 392.885C5.91969 392.43 11.8394 392.248 17.7591 392.248C80.963 392.248 140.342 416.837 185.058 461.554L256.186 532.682C293.161 569.657 342.249 589.966 394.524 589.966C446.799 589.966 495.887 569.657 532.862 532.682C569.837 495.706 590.146 446.619 590.146 394.343C590.146 342.068 569.836 292.979 532.862 256.005L461.735 184.876C417.019 140.16 392.429 80.7808 392.429 17.5769C392.429 11.6572 392.611 5.82945 393.067 -7.01062e-05C292.979 1.7303 193.527 40.7091 117.119 117.119C40.8012 193.438 1.82145 292.888 1.42735e-05 392.885Z" fill="#E4833C"></path> <path d="M490.696 155.915L561.824 227.042C606.539 271.76 631.129 331.139 631.129 394.342C631.129 457.547 606.539 516.925 561.823 561.642C517.106 606.358 457.728 630.948 394.524 630.948C331.32 630.948 271.941 606.358 227.225 561.642L156.097 490.515C119.122 453.538 70.0344 433.23 17.759 433.23C12.2947 433.23 6.83041 433.504 1.36609 433.959C9.01614 524.758 47.6307 613.462 117.119 682.859C273.307 839.047 526.578 839.047 682.858 682.859C839.046 526.67 839.046 273.398 682.858 117.119C613.462 47.7226 524.848 9.10714 434.05 1.36602C433.595 6.73927 433.412 12.1126 433.412 17.5769C433.412 69.8522 453.722 119.031 490.696 155.915Z" fill="#E4833C"></path> </svg> 