<?xml version="1.0" encoding="UTF-8"?> <!-- Generator: Adobe Illustrator 23.0.6, SVG Export Plug-In . SVG Version: 6.00 Build 0) --> <svg xmlns="http://www.w3.org/2000/svg" xmlns:xlink="http://www.w3.org/1999/xlink" id="Layer_1" x="0px" y="0px" viewBox="0 0 171.2 308.2" style="enable-background:new 0 0 171.2 308.2;" xml:space="preserve"> <style type="text/css"> .st0{fill:#B16668;} .st1{fill:#9A4A4D;} .st2{fill:#455A64;} .st3{fill:#37474F;} .st4{fill:#263238;} .st5{fill:#FD974B;} .st6{opacity:0.3;} .st7{fill:#E6E6E6;} .st8{fill:#E0E0E0;} .st9{fill:#F0F0F0;} .st10{fill:#EBEBEB;} .st11{fill:#F5F5F5;} </style> <g id="freepik--character--inject-32"> <path class="st0" d="M169.8,145c0,0-5.8-24-7.4-28.9c-1.7-5.2-3-7.4-4.8-9.4c0,0-16.1-21-20-24.9c-4.8-4.9-6.8-7.3-10.5-8.6 c-2-0.8-4.1-1.1-10.4-2c-7.8,1.4-6.2,21.3-1.3,24.8c3.1,2.2,7.9,5.5,10.9,2.9V96l21.5,20.9c0,0,11.4,27.5,11.2,30.2 s-2.6,6.3-3.3,9.6c-0.5,2.2-0.2,4.5-1,6.6c-0.2,0.5-0.4,1.3,0.2,1.5c0.2,0,0.3,0,0.5,0c1.4-0.3,2.5-1.3,3-2.6 c0.6-1.1,0.6-1.9,1.2-3c0.2,2.1,0.2,4.3-0.1,6.4c-0.1,1.4-0.2,3-0.3,4.2c-0.3,2.3,3.1,2.9,5.3,2.2c2.1-0.7,3.8-2.2,4.8-4.1 C173.4,160.5,169.8,145,169.8,145z"></path> <path class="st1" d="M126.3,96c-2.5-1.9-4.7-4.1-6.8-6.6c0,0,2.1,6.5,6.8,8.4V96z"></path> <path class="st1" d="M41.2,74.1c-1.9,0.6-3.6,0.6-6.8,2.2s-4.9,3.5-4.9,4.4s2.4,0.8,5.9-0.1S41.2,74.1,41.2,74.1z"></path> <path class="st0" d="M91.8,69.3c-7.8-0.4-9.9,2.3-19.9,10.5s-23,19.3-23,19.3l4.5,13.9c0,0,23.1-16.3,31.4-21.8s11.3-7.1,11.3-7.1 L91.8,69.3z"></path> <path class="st0" d="M39.8,90.4c1.7,6,2,15.4,5.5,20.9c3.3,5.3,6.1,4.3,13.9-3c4.3-4-2.9,0.1-3-7.9c-1.5-5.3-5.4-11.3-6.4-14.2 C48.4,82.6,39.8,90.4,39.8,90.4z"></path> <path class="st1" d="M54,94.8c1.6,4,2.6,7.1,2.5,11.2c1.2-4.1,0.8-8.5-1-12.4L54,94.8z"></path> <path class="st2" d="M49.6,95.5c0.2,0.4,0.2,0.9-0.1,1.2c-0.7,1-1.9,1.6-3.1,1.6c-0.5,0-0.9-0.2-1.2-0.5l0,0L29.6,67.7l4.5-2.2 L49.6,95.5z"></path> <path class="st3" d="M47.9,98c-0.5,0.2-1,0.3-1.5,0.3s-0.9-0.2-1.2-0.5l0,0L29.6,67.7l2-1L47.9,98z"></path> <path class="st4" d="M33.8,66.6c-0.7,1-1.9,1.6-3.1,1.6c-1.1-0.1-1.6-0.9-1-1.8c0.7-1,1.9-1.6,3.1-1.6C34,64.9,34.4,65.7,33.8,66.6 z"></path> <path class="st2" d="M34.2,68.1c-0.5,0.3-1.2,0.1-1.4-0.4l0,0c-4.4-8.5-5.4-18.7-5.9-23.5l-0.1-0.9c-0.1-0.6,0.4-1.1,1-1.2 s1.1,0.4,1.2,1l0,0l0.1,0.9c0.5,4.7,1.5,14.6,5.7,22.8C34.9,67.2,34.7,67.8,34.2,68.1z"></path> <path class="st5" d="M24,57.9c-1.1,0.6-2.3,0.8-3.5,0.8C15.6,58.5,10.2,53.5,6,45.4c-6.3-12.3-7.9-27.3-3.4-34.2 c1.3-2.4,3.9-3.8,6.6-3.7c4.9,0.2,10.3,5.2,14.5,13.3c6.4,12.3,7.9,27.3,3.4,34.2C26.4,56.2,25.3,57.2,24,57.9z M7.2,11 c-0.8,0.4-1.4,1.1-1.9,1.8c-3.7,5.8-2.1,20,3.6,31c3.6,6.9,8.2,11.4,11.8,11.6c1.6,0,3-0.8,3.7-2.2c3.7-5.8,2.1-20-3.6-31 C17.2,15.3,12.6,10.8,9,10.6C8.4,10.6,7.7,10.7,7.2,11L7.2,11z"></path> <g class="st6"> <path d="M24,57.9c-1.1,0.6-2.3,0.8-3.5,0.8C15.6,58.5,10.2,53.5,6,45.4c-6.3-12.3-7.9-27.3-3.4-34.2c1.3-2.4,3.9-3.8,6.6-3.7 c4.9,0.2,10.3,5.2,14.5,13.3c6.4,12.3,7.9,27.3,3.4,34.2C26.4,56.2,25.3,57.2,24,57.9z M7.2,11c-0.8,0.4-1.4,1.1-1.9,1.8 c-3.7,5.8-2.1,20,3.6,31c3.6,6.9,8.2,11.4,11.8,11.6c1.6,0,3-0.8,3.7-2.2c3.7-5.8,2.1-20-3.6-31C17.2,15.3,12.6,10.8,9,10.6 C8.4,10.6,7.7,10.7,7.2,11L7.2,11z"></path> </g> <path class="st3" d="M32.4,70.8c-0.5,0.3-1.2,0.1-1.5-0.5c-4.2-8.1-9.4-10.6-12.2-12L18.2,58c-0.5-0.3-0.7-0.9-0.5-1.5 c0.3-0.5,0.9-0.7,1.5-0.5l0.5,0.3c2.8,1.4,8.6,4.3,13.1,13C33.1,69.9,32.9,70.5,32.4,70.8z"></path> <path class="st0" d="M48.6,84c-0.4-1-1.3-1.8-2.3-2.3c-0.1,0-0.3-0.1-0.4-0.2c-0.1-0.1-0.1-0.2-0.1-0.3c-0.1-0.8-0.7-1.5-1.4-1.9 c-0.2-0.1-0.4-0.2-0.6-0.4c-0.1-0.2-0.1-0.3-0.1-0.5c-0.1-0.9-0.7-1.7-1.6-2c-0.9-0.2-1.8-0.1-2.6,0.3c-1.3,0.4-2.6,0.8-3.9,1.1 c-1.6,0.6-3.3,1-4.8,1.7c-0.6,0.3-1.1,0.6-1.3,1.3s0.1,1.5,0.6,2c0.4,0.3,0.9,0.5,1.1,1c0,0.2,0,0.4,0,0.6c-0.1,0.5,0,0.9,0.2,1.4 c0.2,0.4,0.5,0.8,1,0.9c0.2,0,0.3,0.1,0.5,0.1c0.4,0.2,0.3,0.8,0.4,1.2c0.2,0.7,0.8,1.2,1.5,1.3c0.3,0.1,0.5,0.2,0.7,0.3 c0.4,0.3,0.4,0.9,0.6,1.4c0.3,0.5,0.8,0.8,1.3,0.9c1.5,0.1,3-0.1,4.4-0.6c1.8-0.4,3.5-0.9,5.3-1.5c1.1-0.3,1.9-1.1,2.3-2.2 c0.1-0.6,0-1.3-0.2-1.9C49,85.1,48.8,84.5,48.6,84z"></path> <path class="st0" d="M49.7,86.1c-0.4-3.2-0.5-5.4-1.8-7.6s-2.5-4.4-3.9-5.2s-2.2,0.4-4.8,2c-2,1.2-4.2,2-2.2,3.2s5.7-0.7,5.7-0.7 L49.7,86.1z"></path> <path class="st1" d="M36.3,77.5c1.2,3.4,6.4,0.1,6.4,0.1s0.3,0.8,0.3,0.9c0,0.4-0.1,0.7-0.4,1c-0.1,0.1-0.2,0.2-0.2,0.3 c0,0,0,0,0,0.1s0.1,0.1,0.1,0.1c0.5,0,1,0,1.5,0c0.6,0.1,1.1,0.4,1.4,0.9c0.2,0.4,0.2,0.8,0,1.2s-0.5,0.7-0.8,0.9 c-0.1,0.1-0.3,0.2-0.2,0.4c0.6-0.2,1.2-0.2,1.7-0.1c0.4,0.1,0.8,0.2,1.2,0.5c0.3,0.3,0.5,0.7,0.5,1.1c-0.1,0.4-0.3,0.7-0.6,0.9 s-0.7,0.4-1,0.6c-0.1,0-0.1,0.1-0.1,0.2h0.1H47c0.3,0,0.6,0,0.9,0.1c1.1,0.3,1.4,1.5,0.4,2.4c0.4-0.2,0.8-0.7,0.9-1.1 c0-0.4,0-0.8-0.2-1.2s-0.4-0.7-0.8-0.9l-0.1-0.1c-0.1-0.1,0-0.3,0.1-0.4c0.2-0.4,0.3-0.8,0.2-1.2s-0.3-0.8-0.7-1.1 c-0.3-0.3-0.7-0.6-1.2-0.7h-0.1c-0.1-0.1-0.1-0.2-0.1-0.3c0.1-0.4,0.1-0.7,0.1-1.1c0-0.4-0.2-0.7-0.4-1c-0.5-0.4-1.1-0.7-1.8-0.7 c-0.2,0-0.3-0.1-0.4-0.2c0-0.1,0-0.3,0-0.4c0-0.4-0.1-0.7-0.3-1c-0.1-0.1-0.3-0.7-0.5-0.6c0,0-0.6,0.4-2,1S37,79.1,36.3,77.5z"></path> <path class="st7" d="M128.6,132.5c-1.9-7.7-4.4-12-4.3-15.6l-33.1,6c-26,15.9-47.2,14.7-45.8,24.2c7.5,24.4,56.4,42,81.8,34.5 C134.5,179.5,132.6,149.4,128.6,132.5z"></path> <path class="st8" d="M80.1,178.2l0.9-3.8c0,0,21.4-21.6,25.2-39.2c0,0-1.3,14.1-9.5,25.5C92.1,167.4,86.5,173.2,80.1,178.2z"></path> <path class="st9" d="M88.6,129.9c-7.8,4.1-27.3,8.8-41.7,25.2c0,0,6.1,10,13,14.2l31.3-37.2L88.6,129.9z"></path> <path class="st9" d="M102.9,140.9c-3.4,13.5-11.7,25.5-22.8,37.2c0,0,9.3,5,18.6,5.1c0.5-0.9,20.2-28,16.2-39.6 C113.6,139.9,102.9,140.9,102.9,140.9z"></path> <path class="st0" d="M97.1,204.2c-0.1,4,0.1,8,0.7,12c0.6,24.6,2.8,30.5,4.7,47.7c0.2,1.9,0.3,3.6,0.3,4.8c0.1,1.6,0.5,15.8,1,19.4 c0.6,5.3,9.3,5.9,10.3-0.1c0.7-4,0.4-16.8,0.4-18.8c0,0,0-1.4,0.1-3c0.4-7.6,2.5-22.2,4-35.4c1.1-10-0.7-15-1.6-20.1 c0,0,20.1-56.8,8.9-83.3l-23.5,0.8c0,0-3.9,32.6-4.7,59.3C97.5,195.1,97.3,200.5,97.1,204.2z"></path> <path class="st2" d="M116.4,276.1c0.4,1.9,0.7,3.8,0.8,5.8c-0.1,2.5-0.7,5.1-0.2,7c0.4,1.5,1.2,8-0.1,12.8s-3.3,6.1-6.9,6.5 c-3.8,0.3-7.1-2.2-7.6-4.2s-1.4-6.5-1.4-6.5L116.4,276.1z"></path> <path class="st9" d="M116.8,289.5c-0.9-4.6-0.2-8-0.4-13.5c0-1.6-0.3-3.2-0.7-4.8l0,0c-0.2-1.2-0.3-2.4-0.4-3.6 c-0.1-0.9,0-1.4-0.6-1.6c-0.1,1.5-0.1,2.9-0.1,4.1c0,2-0.4,3.2-0.5,2.9c-0.1-0.5,0-2.3-0.4-2.6c-0.9-0.8-1.5,0.3-5.3,0.4 c-2.7,0-5.7-1.7-6.1-0.8s0.1,1.9,0.1,3.2c-0.1,0.8-0.3,2.5-0.3,3.2c-0.4,4-0.8,5.8-1.5,11c-0.7,5-0.4,10.7,2.1,15.6 s9.4,3.6,11.4,0.7S117.7,294.6,116.8,289.5z"></path> <path class="st8" d="M114.1,273.2c-0.4,2.1-1,2.8-0.9,6.4s0.6,11.2-0.5,13.1s1,2.7,1.7,1.6s1.3-4.3,1-7.8s-0.7-7.3-0.8-9.2 C114.6,275.9,114.4,274.5,114.1,273.2z"></path> <path class="st8" d="M103.9,279.6c0-3.7-1-4.1-1.3-6.6l0,0c0,0.1,0,0.3,0,0.4c-0.1,0.8-0.3,2.5-0.3,3.2c-0.2,2.2-0.4,3.8-0.7,5.7 c-0.1,1.3-0.2,2.7-0.3,4.1c-0.2,3.5,0.5,6.7,1.2,7.8s2.6,0.3,1.7-1.7C103.4,290.8,103.9,283.2,103.9,279.6z"></path> <path class="st8" d="M114.2,303.9c1.6-2.3,2.8-6.6,2.8-10.8c-0.1,0.7-0.3,4-2,5.2c-1.9,1.3-3.6,0.7-3.7-0.8 c0.1-1.7,0.3-3.4,0.6-5.1c-2.3-1-4.8-1-7.1,0.1c0.6,2.6,1.3,5.6-0.3,6c-2.5,0.6-3.9-3.5-4.1-5.6c0,3.6,0.8,7.1,2.3,10.3 C105.2,308.1,112.2,306.8,114.2,303.9z"></path> <path class="st2" d="M113.6,293.3c-0.1,0-0.1,0-0.2,0c-3.2-1.3-6.8-1.4-10.1-0.3c-0.3,0.1-0.5,0-0.6-0.3s0-0.5,0.3-0.6l0,0 c3.5-1.2,7.4-1.1,10.9,0.3c0.2,0.1,0.4,0.4,0.2,0.7l0,0C114,293.2,113.8,293.3,113.6,293.3z"></path> <path class="st2" d="M113.6,290.3c-0.1,0-0.2,0-0.2-0.1c-3.1-1.4-6.6-1.5-9.7-0.3c-0.2,0.1-0.5,0-0.7-0.2c-0.1-0.3,0-0.6,0.2-0.7 c3.4-1.4,7.3-1.3,10.7,0.3c0.2,0.1,0.3,0.4,0.2,0.7C113.9,290.2,113.7,290.3,113.6,290.3z"></path> <path class="st2" d="M113.8,287.2c-0.1,0-0.2,0-0.3-0.1c-2.7-1.7-7.7-1.3-10-0.2c-0.2,0.1-0.5,0.1-0.7-0.2 c-0.1-0.2-0.1-0.5,0.2-0.7h0.1c2.6-1.2,8-1.7,11,0.3c0.2,0.1,0.3,0.5,0.1,0.7C114.1,287.2,114,287.3,113.8,287.2z"></path> <path class="st2" d="M113.7,284c-0.1,0-0.1,0-0.2,0c-2.7-1.1-7.1-1-9.9-0.2c-0.3,0.1-0.5-0.1-0.6-0.4l0,0c-0.1-0.3,0.1-0.5,0.4-0.6 c3.1-0.8,7.7-1,10.6,0.3c0.3,0.1,0.5,0.3,0.4,0.6S114,284.2,113.7,284L113.7,284z"></path> <path class="st2" d="M113.7,281c-0.1,0-0.2,0-0.3-0.1c-2.3-1.4-7.3-1.5-9.8-0.2c-0.2,0.1-0.5,0-0.7-0.2l0,0c-0.1-0.2,0-0.5,0.2-0.7 l0,0c2.8-1.4,8.2-1.3,10.7,0.3c0.2,0.1,0.3,0.5,0.2,0.7C114,280.9,113.9,281,113.7,281z"></path> <path class="st2" d="M113.6,278.2c-0.1,0-0.2,0-0.3-0.1c-2.1-1.6-7.7-1.5-9.3-0.2c-0.2,0.2-0.5,0.1-0.7-0.1s-0.1-0.5,0.1-0.7l0,0 c2-1.5,8.1-1.6,10.5,0.2c0.2,0.2,0.3,0.5,0.1,0.7C114,278.1,113.8,278.2,113.6,278.2L113.6,278.2z"></path> <path class="st0" d="M91.5,123.1c-8.4,3.9-32.9,23.5-40.6,31.1c-6.1,6-5,12.2-3.4,18.4c2.1,8.3,4.8,17.8,6.8,24 c3.5,11.1,7.4,22.7,10.1,31.4c1,3.4,4.8,8,6.9,6.4c1.9-1.4,2.3-8.9,2.3-8.9s0.4-4.1,0.3-16.9c-0.1-20.3-0.9-25.6-7.5-36.8 c18.8-10.7,34.3-21.2,39.1-26.7L91.5,123.1z"></path> <path class="st2" d="M79.8,228.6c0.6,0.7,1.6,2.2,1.4,3c-1,3.1-1.6,6.2-1.9,9.4c-0.2,3.9,1.3,11.2-2.4,16.4c-3.7,5.2-6.4,5.6-9,6 c-2.1,0.5-4.4-0.1-6-1.5c0,0-2.4-2.2-1.3-3.8S79.8,228.6,79.8,228.6z"></path> <path class="st9" d="M80.1,229c-0.2-1.3-2-3.9-3.1-5.9s-1.9-3.1-3.1-3l-0.1,2.3c-0.1,0.5-0.3,1.1-0.6,1.6c-0.3,1.1-0.3,2.2-0.1,3.2 c0.1,1-0.2,1.9-0.6,2.8c-0.1-2-0.1-4.3-1.4-4.3c-0.9,0-2.5,1.2-4.3,1.4s-3.2-0.2-3.9,0.1s-0.3,1.1,0.1,3.2c0.5,2.3,0.8,4.7,0.9,7.1 l0,0c-0.2,1.9-0.4,3.9-0.7,5.7c-1.2,7.2-3.9,10.9-3.3,14.8c0.6,4,6.9,5.5,11.5,2.1c7.9-5.8,6.3-11.8,6.3-16.2 c-0.1-2.9,0.2-5.7,0.9-8.5C79.2,232.8,80,231.5,80.1,229z"></path> <path class="st8" d="M75.1,226.1c-0.3-1.4,0.5-3.1,0.6-4.8c-0.6-0.8-1.2-1.2-1.9-1.1l-0.1,2.3c-0.1,0.5-0.3,1.1-0.6,1.6 c-0.3,1.1-0.3,2.2-0.1,3.2c0.1,1-0.2,1.9-0.6,2.8c-0.5,4.3,0.2,9-0.8,13.2c-0.9,4-1.8,5.2-0.9,5.8s2.2,0.2,3.2-4.4s0.5-7.4,0.5-11 S75.6,228.1,75.1,226.1z"></path> <path class="st8" d="M73.1,253c-2.4,1.4-3.9,1-3.8-1.4c0.2-1.7,0.7-3.3,1.5-4.7l-6.2,0.2c0,0,0.3,4.3-0.9,5.3 c-0.8,0.6-1.8-0.4-2.4-1.7c-0.9,2.8-1.7,5-1.4,7.2c0.6,4,6.9,5.5,11.5,2.1c6.6-4.9,6.6-9.9,6.4-14C77.7,248.6,75.4,251.7,73.1,253z "></path> <path class="st8" d="M63.4,230.4c0.3,2.4,0.4,4.7,0.4,7.1c-0.2,1.9-0.4,3.9-0.7,5.7c-0.2,1.2-0.4,2.4-0.7,3.4 c0,0.6,0.2,1.1,0.6,1.6c0.8,0.7,1.6,0.7,1.6-1.2S64.3,235.2,63.4,230.4L63.4,230.4z"></path> <path class="st2" d="M71.9,247.8L71.9,247.8c-2.8-0.4-5.6-0.4-8.4,0c-0.3,0-0.5-0.1-0.6-0.4c0-0.3,0.1-0.5,0.4-0.6l0,0 c2.9-0.4,5.8-0.4,8.6,0c0.3,0,0.5,0.3,0.5,0.5C72.5,247.7,72.2,247.9,71.9,247.8L71.9,247.8z"></path> <path class="st2" d="M63.7,244.9c-0.2,0-0.4-0.1-0.5-0.3c-0.1-0.3,0.1-0.5,0.3-0.6c3-1,6.2-1,9.2,0c0.3,0.1,0.4,0.4,0.3,0.6 c-0.1,0.3-0.4,0.4-0.6,0.3l0,0C69.6,244,66.6,244,63.7,244.9C63.8,244.9,63.8,244.9,63.7,244.9z"></path> <path class="st2" d="M63.7,242.1c-0.2,0-0.4-0.1-0.5-0.3c-0.1-0.3,0-0.5,0.3-0.7c3.1-1.3,6.5-1.5,9.7-0.5c0.3,0.1,0.4,0.4,0.3,0.6 l0,0c-0.1,0.3-0.4,0.4-0.6,0.3c-3-0.9-6.1-0.7-8.9,0.5C63.9,242.1,63.8,242.1,63.7,242.1z"></path> <path class="st2" d="M63.7,239.1c-0.2,0-0.4-0.1-0.4-0.3c-0.1-0.2-0.1-0.5,0.2-0.7l0,0c4.5-2.5,9.5-0.9,9.7-0.8 c0.3,0.1,0.4,0.4,0.3,0.6c-0.1,0.3-0.4,0.4-0.6,0.3l0,0c0,0-4.8-1.5-8.9,0.7C63.9,239.1,63.8,239.1,63.7,239.1z"></path> <path class="st2" d="M63.8,236c-0.2,0-0.3-0.1-0.4-0.2c-0.1-0.2-0.1-0.5,0.2-0.7l0,0c4.3-2.6,9.7-0.9,9.9-0.9 c0.3,0.1,0.4,0.4,0.3,0.6c-0.1,0.3-0.4,0.4-0.6,0.3c-0.1,0-5.2-1.6-9.1,0.8C64,235.9,63.9,236,63.8,236z"></path> <path class="st2" d="M63.6,233.3c-0.2,0-0.3-0.1-0.4-0.3c-0.1-0.2-0.1-0.5,0.2-0.7c3-1.6,6.6-1.9,9.8-0.8c0.3,0.1,0.4,0.4,0.3,0.6 l0,0c-0.1,0.3-0.4,0.4-0.6,0.3l0,0c-3-1-6.2-0.7-9,0.8C63.8,233.2,63.7,233.2,63.6,233.3z"></path> <path class="st2" d="M126.3,98.8c-13.7-2.5-12.9-20.9-9.6-27.7l-4.5-0.5l-20.3-1.4c-1.9,3-5.3,5.1-11.5,16 c-3.1,5.3-5.3,12.9,3.2,18.4l6.4,14.1l1.1,5.1c16.1,2.5,30.2,3.3,33.1-6C124.3,116.9,126.5,105.9,126.3,98.8z"></path> <path class="st3" d="M93.1,103.6c0,0,3.3,4.7,11.2,4.1s11.2-7.7,11.2-7.7s-1,8.7-9.8,9.7C95.1,110.9,93.1,103.6,93.1,103.6z"></path> <path class="st10" d="M127.1,181.5c1.6-1,5-3.4-8.5-13.1c-2.7-1.9-7.8-4-13.4-6.9c-22.4-11.8-60.7-28.1-59.8-14.4 c0,0-1-4.4,2.6-6.8c6.3-4.5,13.3-8,20.7-10.3c7.3-2.5,15.6-3.6,22.5-7l-1.2-5.1c1.1,1.6,21.6,13.2,34.3-0.9l0.8,4.5 c2.3,5.4,4.2,11,5.6,16.7C132.8,147.1,137.4,179,127.1,181.5z"></path> <path class="st8" d="M123.4,122.4c0,0,2.3,4.7,4.7,15.8s2.1,26-2.2,36.3h-2.4c0,0,4.7-20.9,3-31.2c-1.1-6.6-2.6-13.2-4.4-19.7"></path> <path class="st8" d="M112.8,126.6h-0.7c-0.3,5.8-1.6,11.6-3.7,17c-3.2,7.9-7,17.6-7,17.6l2.9-0.3c0,0,5.3-10.3,7.1-17 C113.3,136.6,113.4,128.5,112.8,126.6z"></path> <path class="st8" d="M72.6,148.4l4.2-0.6c4.9-4.2,10.1-8,15.6-11.4c4.5-2.6,7.8-7.1,8.9-12.2c0,0-5.1,7.4-17.4,13.5 C75,142.2,72.6,148.4,72.6,148.4z"></path> <path class="st11" d="M122.7,122.4c0,0,6.6,17.8,4.9,33s-4.1,19.1-4.1,19.1c-4.5-3-10.3-6.6-17.7-10.8c0,0,14-16.9,9.4-38.6 L122.7,122.4z"></path> <path class="st11" d="M111.9,125.4c0,0,2.9,16.1-10.6,35.8c-6.5-3.1-13.2-6.8-21.9-10.2c0,0,22.9-12,25.7-24.8L111.9,125.4z"></path> <path class="st11" d="M100.4,124.7c0,0-1.1,6.4-9.8,11.1c-8.3,4.5-18,12.6-18,12.6S60,143.2,51.9,144c0,0,7.8-6.6,22.2-11.6 c14.7-5.1,19.1-7.1,20-8.9L100.4,124.7z"></path> <path class="st5" d="M90,117.7c0,0,0.2,3.7,1.1,5.1c0,0,8.8,5.9,18.5,4.9s13.9-3.9,15.4-6.4c0.1-1.5-0.2-3.1-0.8-4.5 c0,0-3.7,4.7-14.6,5.5C97.5,123.3,90,117.7,90,117.7z"></path> <path class="st4" d="M89.2,15.2c-2.3-1.2-5-1.1-7.6-1l-6.9,0.2c-3.8,0.1-6.7-0.7-8.9-4c-1.3-2.1-2.4-4.4-3.4-6.6 c-0.5-1.1-1.3-2.1-2.2-2.9c-2.1-1.3-4.7-1.1-6.6,0.5c-1.8,1.6-3,3.7-3.5,6c-1.4,6,0.5,12.9,5.4,16.6c6,4.6,15.4,4.6,22.3,2.1 c3.4-1.3,7-3.2,10.4-2.2c1.9,0.6,4.3,2.4,5.2-0.3C94.4,20.6,91.7,16.5,89.2,15.2z"></path> <path class="st4" d="M104.8,61L104.8,61c-12.3,0-22.3-10-22.3-22.3l0,0v-1.5c0-11.4,9.2-20.6,20.6-20.6h3.4 c11.4,0,20.6,9.2,20.6,20.6v1.4C127.1,51,117.1,61,104.8,61L104.8,61z"></path> <path class="st0" d="M119.2,27.1c2.3,2.2,5.3,6.8,5,20.5c-0.2,11.6-3.8,14.4-5.6,15.3s-5.3,0.4-8.7-0.2V71c0,0-0.5,2.8-3.9,6.3 c-2.9,3.1-7.6,3.7-11.3,1.5c-2.9-1.7,0.5-9,0.5-9l-0.1-15.5c0,0-2,2-5.4-1c-2.8-2.5-3.8-6.8-1.6-9.1c1.9-1.8,4.9-1.8,6.7,0 c0.4,0.4,0.8,0.9,1,1.5c5-0.4,9.8-1.9,14.1-4.3C116.8,37.5,118.5,31.5,119.2,27.1z"></path> <path class="st4" d="M119.5,44.1c-0.1,0.8,0.5,1.5,1.3,1.5s1.4-0.6,1.5-1.4s-0.5-1.5-1.2-1.6c-0.8-0.1-1.5,0.5-1.6,1.2 C119.5,44,119.5,44.1,119.5,44.1L119.5,44.1z"></path> <path class="st4" d="M108.4,44.1c-0.1,0.8,0.5,1.5,1.3,1.5s1.4-0.6,1.5-1.4s-0.5-1.5-1.3-1.5l0,0C109.1,42.7,108.4,43.4,108.4,44.1 z"></path> <path class="st1" d="M110.1,54l3.8,1.3c-0.3,1.1-1.3,1.7-2.4,1.5c0,0,0,0-0.1,0C110.3,56.3,109.7,55.1,110.1,54z"></path> <path class="st4" d="M122.8,39.8l-2.8-2c0.4-0.8,1.4-1,2.2-0.6l0.1,0.1C123.1,37.9,123.3,39,122.8,39.8z"></path> <path class="st4" d="M96,44.2v4.9c1.3,0,2.3-0.9,2.4-2.2v-0.1C98.4,45.4,97.4,44.3,96,44.2z"></path> <polygon class="st1" points="115.3,42.8 115.3,52.2 119.7,50.8 "></polygon> <path class="st1" d="M110,62.6c-3.6-0.5-10.9-2.6-12.1-5.6c0.5,1.5,1.4,2.9,2.6,3.9c2.2,2,9.5,4.1,9.5,4.1V62.6z"></path> </g> </svg> 