<?xml version="1.0" encoding="UTF-8"?> <!-- Generator: Adobe Illustrator 23.0.6, SVG Export Plug-In . SVG Version: 6.00 Build 0) --> <svg xmlns="http://www.w3.org/2000/svg" xmlns:xlink="http://www.w3.org/1999/xlink" id="Layer_1" x="0px" y="0px" viewBox="0 0 27.2 27.2" style="enable-background:new 0 0 27.2 27.2;" xml:space="preserve"> <style type="text/css"> .st0{fill:#FD974B;} .st1{fill:#FFFFFF;} </style> <g id="freepik--Ball--inject-32"> <circle class="st0" cx="13.6" cy="13.6" r="13.6"></circle> <path class="st1" d="M9.7,7.1L9.7,7.1c-1.6,0.7-2.8,1.8-3.6,3.3c-0.7,1.1-1.2,1.7-2.2,1.8c-0.9,0.1-1.8-0.1-2.5-0.7 c-0.4-0.4-0.7-0.8-0.9-1.3c-0.2,0.6-0.3,1.2-0.3,1.8c0.1,0.2,0.3,0.3,0.4,0.4c1,0.8,2.2,1.2,3.4,1c1.7-0.1,2.4-1.3,3.1-2.3 c0.7-1.2,1.7-2.2,3-2.8c2.4-0.7,5.1,0.1,6.7,2c1.9,2.3,3.3,6,0.8,9.1c-0.9,1-2.2,1.7-3.6,1.8c-0.9,0.1-1.7,0.4-2.5,0.9 c-1.4,0.9-2.1,2.3-2.2,4.4c0.4,0.1,0.8,0.3,1.2,0.3v-0.1c0.1-2.3,0.9-3,1.6-3.5c0.7-0.3,1.4-0.6,2.1-0.7c1.7-0.2,3.2-1,4.3-2.3 c2.9-3.7,1.4-8.1-0.8-10.7C15.8,7.2,12.7,6.3,9.7,7.1z"></path> <path class="st1" d="M22.1,7.5c-0.9-1.7-1.4-3.5-1.4-5.4c-0.4-0.2-0.8-0.4-1.2-0.7c-0.4,5.3,2.7,10.2,7.7,12.1c0-0.5,0-0.9-0.1-1.4 C24.9,11.2,23.1,9.6,22.1,7.5z"></path> </g> </svg> 