<?xml version="1.0" encoding="UTF-8"?> <!-- Generator: Adobe Illustrator 23.0.6, SVG Export Plug-In . SVG Version: 6.00 Build 0) --> <svg xmlns="http://www.w3.org/2000/svg" xmlns:xlink="http://www.w3.org/1999/xlink" id="Capa_1" x="0px" y="0px" viewBox="0 0 455.7 455.7" style="enable-background:new 0 0 455.7 455.7;" xml:space="preserve"> <style type="text/css"> .st0{fill:#FFFFFF;} </style> <g> <path class="st0" d="M429.3,115.3l-0.1-0.5c-10.1-40.9-55.8-84.8-97.7-94l-0.5-0.1c-67.8-12.9-136.5-12.9-204.3,0l-0.5,0.1 c-41.9,9.1-87.5,53.1-97.7,94l-0.1,0.5c-12.5,57.2-12.5,115.1,0,172.3l0.1,0.5c9.7,39.2,51.9,81.1,92.3,92.6v45.7 c0,16.5,20.1,24.7,31.6,12.7l46.3-48.1c10,0.6,20.1,0.9,30.1,0.9c34.1,0,68.3-3.2,102.2-9.7l0.5-0.1c41.9-9.1,87.6-53.1,97.7-94 l0.1-0.5C441.8,230.4,441.8,172.4,429.3,115.3z M392.7,279.3c-6.8,26.7-41.4,59.9-68.9,66c-36,6.9-72.4,9.8-108.7,8.8 c-0.7,0-1.4,0.3-1.9,0.8c-5.2,5.3-33.8,34.7-33.8,34.7l-35.9,36.9c-2.6,2.7-7.2,0.9-7.2-2.9v-75.7c0-1.3-0.9-2.3-2.1-2.6 c0,0,0,0,0,0c-27.5-6.1-62.2-39.3-68.9-66c-11.3-51.7-11.3-104,0-155.7c6.8-26.7,41.4-59.9,68.9-66c63-12,126.8-12,189.7,0 c27.5,6.1,62.2,39.3,68.9,66C403.9,175.2,403.9,227.6,392.7,279.3z"></path> <path class="st0" d="M288.7,314.2c-4.2-1.3-8.3-2.1-12-3.7c-38.8-16.1-74.5-36.9-102.8-68.7c-16.1-18.1-28.7-38.6-39.3-60.2 c-5-10.3-9.3-20.9-13.6-31.5c-4-9.7,1.9-19.6,8-26.9c5.8-6.8,13.2-12.1,21.2-15.9c6.3-3,12.4-1.3,17,4c9.9,11.5,19,23.5,26.3,36.8 c4.5,8.2,3.3,18.2-4.9,23.7c-2,1.4-3.8,2.9-5.7,4.5c-1.6,1.3-3.2,2.7-4.3,4.5c-2,3.3-2.1,7.2-0.8,10.8c10.1,27.8,27.1,49.4,55.1,61 c4.5,1.9,9,4,14.1,3.4c8.6-1,11.4-10.5,17.5-15.4c5.9-4.8,13.5-4.9,19.8-0.9c6.4,4,12.5,8.4,18.7,12.7c6,4.3,12,8.5,17.6,13.4 c5.3,4.7,7.2,10.9,4.2,17.3c-5.5,11.7-13.5,21.4-25.1,27.6C296.3,312.5,292.4,313.1,288.7,314.2 C284.5,312.9,292.4,313.1,288.7,314.2z"></path> <path class="st0" d="M229,93.8c50.8,1.4,92.5,35.1,101.4,85.3c1.5,8.6,2.1,17.3,2.7,26c0.3,3.7-1.8,7.1-5.7,7.2 c-4.1,0-5.9-3.4-6.2-7c-0.5-7.2-0.9-14.5-1.9-21.6c-5.3-37.8-35.4-69.1-73.1-75.8c-5.7-1-11.5-1.3-17.2-1.9 c-3.6-0.4-8.4-0.6-9.2-5.1c-0.7-3.8,2.5-6.8,6.1-7C227,93.8,228,93.8,229,93.8C279.7,95.2,228,93.8,229,93.8z"></path> <path class="st0" d="M306.1,193.9c-0.1,0.6-0.1,2.1-0.5,3.5c-1.3,5.1-9.1,5.7-10.9,0.6c-0.5-1.5-0.6-3.3-0.6-4.9 c0-10.8-2.4-21.5-7.8-30.9c-5.6-9.6-14.1-17.7-24.1-22.6c-6-3-12.6-4.8-19.2-5.9c-2.9-0.5-5.8-0.8-8.7-1.2 c-3.5-0.5-5.4-2.7-5.2-6.2c0.2-3.3,2.5-5.6,6.1-5.4c11.7,0.7,22.9,3.2,33.3,8.7c21.1,11.2,33.1,28.8,36.6,52.3 c0.2,1.1,0.4,2.1,0.5,3.2C305.8,187.7,305.9,190.4,306.1,193.9C306,194.5,305.9,190.4,306.1,193.9z"></path> <path class="st0" d="M274.5,192.6c-4.2,0.1-6.5-2.3-7-6.2c-0.3-2.7-0.5-5.5-1.2-8.1c-1.3-5.2-4-10-8.4-13.2 c-2.1-1.5-4.4-2.6-6.9-3.3c-3.1-0.9-6.4-0.7-9.5-1.4c-3.4-0.8-5.2-3.6-4.7-6.7c0.5-2.9,3.3-5.1,6.4-4.9 c19.7,1.4,33.8,11.6,35.8,34.8c0.1,1.6,0.3,3.4-0.1,4.9C278.5,191.2,276.5,192.5,274.5,192.6C270.3,192.7,276.5,192.5,274.5,192.6z "></path> </g> </svg> 