<?xml version="1.0" encoding="UTF-8"?> <svg xmlns="http://www.w3.org/2000/svg" width="45" height="45" viewBox="0 0 45 45" fill="none"> <path d="M45 22.5C45 34.9264 34.9264 45 22.5 45C10.0736 45 0 34.9264 0 22.5C0 10.0736 10.0736 0 22.5 0C34.9264 0 45 10.0736 45 22.5Z" fill="#FF0000"></path> <path d="M34.4984 15.5662C34.2224 14.5566 33.4088 13.7607 32.3768 13.4907C30.5048 13 23 13 23 13C23 13 15.4952 13 13.6232 13.4907C12.5912 13.7607 11.7776 14.5566 11.5016 15.5662C11 17.3975 11 22.3913 11 22.3913C11 22.3913 11 27.3851 11.5016 29.2164C11.7776 30.226 12.5912 31.0219 13.6232 31.2919C15.4952 31.7826 23 31.7826 23 31.7826C23 31.7826 30.5048 31.7826 32.3768 31.2919C33.41 31.0219 34.2224 30.226 34.4984 29.2164C35 27.3851 35 22.3913 35 22.3913C35 22.3913 35 17.3975 34.4984 15.5662ZM20.6 26.4577V18.3249L27.8 22.3913L20.6 26.4577Z" fill="white"></path> </svg> 